<?xml version="1.0" encoding="UTF-8" standalone="no"?>
<!DOCTYPE svg PUBLIC "-//W3C//DTD SVG 1.1//EN"
 "http://www.w3.org/Graphics/SVG/1.1/DTD/svg11.dtd">
<!-- Generated by graphviz version 14.1.2 (0)
 -->
<!-- Title: snakemake_dag Pages: 1 -->
<svg width="1265pt" height="260pt"
 viewBox="0.00 0.00 1265.00 260.00" xmlns="http://www.w3.org/2000/svg" xmlns:xlink="http://www.w3.org/1999/xlink">
<g id="graph0" class="graph" transform="scale(1 1) rotate(0) translate(4 256)">
<title>snakemake_dag</title>
<polygon fill="white" stroke="none" points="-4,4 -4,-256 1260.53,-256 1260.53,4 -4,4"/>
<!-- 0 -->
<g id="node1" class="node">
<title>0</title>
<path fill="none" stroke="#d88d56" stroke-width="2" d="M713.4,-36C713.4,-36 683.4,-36 683.4,-36 677.4,-36 671.4,-30 671.4,-24 671.4,-24 671.4,-12 671.4,-12 671.4,-6 677.4,0 683.4,0 683.4,0 713.4,0 713.4,0 719.4,0 725.4,-6 725.4,-12 725.4,-12 725.4,-24 725.4,-24 725.4,-30 719.4,-36 713.4,-36"/>
<text xml:space="preserve" text-anchor="middle" x="698.4" y="-14.12" font-family="sans" font-size="10.00">all</text>
</g>
<!-- 1 -->
<g id="node2" class="node">
<title>1</title>
<path fill="none" stroke="#70d856" stroke-width="2" d="M216.4,-180C216.4,-180 186.4,-180 186.4,-180 180.4,-180 174.4,-174 174.4,-168 174.4,-168 174.4,-156 174.4,-156 174.4,-150 180.4,-144 186.4,-144 186.4,-144 216.4,-144 216.4,-144 222.4,-144 228.4,-150 228.4,-156 228.4,-156 228.4,-168 228.4,-168 228.4,-174 222.4,-180 216.4,-180"/>
<text xml:space="preserve" text-anchor="middle" x="201.4" y="-158.12" font-family="sans" font-size="10.00">pca</text>
</g>
<!-- 1&#45;&gt;0 -->
<g id="edge14" class="edge">
<title>1&#45;&gt;0</title>
<path fill="none" stroke="grey" stroke-width="2" d="M173.75,-158.14C109.61,-150.53 -40.05,-126.49 10.4,-72 54.46,-24.41 516.23,-19.41 657.54,-19"/>
<polygon fill="grey" stroke="grey" stroke-width="2" points="657.55,-22.5 667.54,-18.98 657.53,-15.5 657.55,-22.5"/>
</g>
<!-- 2 -->
<g id="node3" class="node">
<title>2</title>
<path fill="none" stroke="#56d88a" stroke-width="2" d="M245.4,-108C245.4,-108 157.4,-108 157.4,-108 151.4,-108 145.4,-102 145.4,-96 145.4,-96 145.4,-84 145.4,-84 145.4,-78 151.4,-72 157.4,-72 157.4,-72 245.4,-72 245.4,-72 251.4,-72 257.4,-78 257.4,-84 257.4,-84 257.4,-96 257.4,-96 257.4,-102 251.4,-108 245.4,-108"/>
<text xml:space="preserve" text-anchor="middle" x="201.4" y="-86.12" font-family="sans" font-size="10.00">plot_dimred_metadata</text>
</g>
<!-- 1&#45;&gt;2 -->
<g id="edge18" class="edge">
<title>1&#45;&gt;2</title>
<path fill="none" stroke="grey" stroke-width="2" d="M201.4,-143.34C201.4,-136.75 201.4,-129.08 201.4,-121.67"/>
<polygon fill="grey" stroke="grey" stroke-width="2" points="204.9,-121.93 201.4,-111.93 197.9,-121.93 204.9,-121.93"/>
</g>
<!-- 4 -->
<g id="node5" class="node">
<title>4</title>
<path fill="none" stroke="#56d863" stroke-width="2" d="M369.78,-108C369.78,-108 287.03,-108 287.03,-108 281.03,-108 275.03,-102 275.03,-96 275.03,-96 275.03,-84 275.03,-84 275.03,-78 281.03,-72 287.03,-72 287.03,-72 369.78,-72 369.78,-72 375.78,-72 381.78,-78 381.78,-84 381.78,-84 381.78,-96 381.78,-96 381.78,-102 375.78,-108 369.78,-108"/>
<text xml:space="preserve" text-anchor="middle" x="328.4" y="-86.12" font-family="sans" font-size="10.00">plot_dimred_features</text>
</g>
<!-- 1&#45;&gt;4 -->
<g id="edge22" class="edge">
<title>1&#45;&gt;4</title>
<path fill="none" stroke="grey" stroke-width="2" d="M229.27,-145.64C245.52,-136.68 266.37,-125.19 284.76,-115.06"/>
<polygon fill="grey" stroke="grey" stroke-width="2" points="286.39,-118.15 293.46,-110.26 283.02,-112.02 286.39,-118.15"/>
</g>
<!-- 5 -->
<g id="node6" class="node">
<title>5</title>
<path fill="none" stroke="#56d8c1" stroke-width="2" d="M115.15,-108C115.15,-108 31.65,-108 31.65,-108 25.65,-108 19.65,-102 19.65,-96 19.65,-96 19.65,-84 19.65,-84 19.65,-78 25.65,-72 31.65,-72 31.65,-72 115.15,-72 115.15,-72 121.15,-72 127.15,-78 127.15,-84 127.15,-84 127.15,-96 127.15,-96 127.15,-102 121.15,-108 115.15,-108"/>
<text xml:space="preserve" text-anchor="middle" x="73.4" y="-86.12" font-family="sans" font-size="10.00">plot_pca_diagnostics</text>
</g>
<!-- 1&#45;&gt;5 -->
<g id="edge24" class="edge">
<title>1&#45;&gt;5</title>
<path fill="none" stroke="grey" stroke-width="2" d="M173.63,-145.81C157.19,-136.82 135.99,-125.23 117.33,-115.02"/>
<polygon fill="grey" stroke="grey" stroke-width="2" points="119.21,-112.06 108.76,-110.34 115.85,-118.2 119.21,-112.06"/>
</g>
<!-- 6 -->
<g id="node7" class="node">
<title>6</title>
<path fill="none" stroke="#56d873" stroke-width="2" d="M504.65,-108C504.65,-108 412.15,-108 412.15,-108 406.15,-108 400.15,-102 400.15,-96 400.15,-96 400.15,-84 400.15,-84 400.15,-78 406.15,-72 412.15,-72 412.15,-72 504.65,-72 504.65,-72 510.65,-72 516.65,-78 516.65,-84 516.65,-84 516.65,-96 516.65,-96 516.65,-102 510.65,-108 504.65,-108"/>
<text xml:space="preserve" text-anchor="middle" x="458.4" y="-86.12" font-family="sans" font-size="10.00">plot_dimred_interactive</text>
</g>
<!-- 1&#45;&gt;6 -->
<g id="edge28" class="edge">
<title>1&#45;&gt;6</title>
<path fill="none" stroke="grey" stroke-width="2" d="M229.35,-151.91C237.7,-149.27 246.9,-146.45 255.4,-144 279.98,-136.93 338.7,-121.66 386.69,-109.32"/>
<polygon fill="grey" stroke="grey" stroke-width="2" points="387.52,-112.72 396.33,-106.85 385.78,-105.94 387.52,-112.72"/>
</g>
<!-- 2&#45;&gt;0 -->
<g id="edge8" class="edge">
<title>2&#45;&gt;0</title>
<path fill="none" stroke="grey" stroke-width="2" d="M258.38,-73.64C261.08,-73.05 263.77,-72.5 266.4,-72 408.88,-44.75 580.61,-28.57 657.59,-22.17"/>
<polygon fill="grey" stroke="grey" stroke-width="2" points="657.71,-25.68 667.39,-21.38 657.14,-18.7 657.71,-25.68"/>
</g>
<!-- 3 -->
<g id="node4" class="node">
<title>3</title>
<path fill="none" stroke="#56b9d8" stroke-width="2" d="M343.9,-180C343.9,-180 276.9,-180 276.9,-180 270.9,-180 264.9,-174 264.9,-168 264.9,-168 264.9,-156 264.9,-156 264.9,-150 270.9,-144 276.9,-144 276.9,-144 343.9,-144 343.9,-144 349.9,-144 355.9,-150 355.9,-156 355.9,-156 355.9,-168 355.9,-168 355.9,-174 349.9,-180 343.9,-180"/>
<text xml:space="preserve" text-anchor="middle" x="310.4" y="-158.12" font-family="sans" font-size="10.00">prep_feature_plot</text>
</g>
<!-- 3&#45;&gt;2 -->
<g id="edge15" class="edge">
<title>3&#45;&gt;2</title>
<path fill="none" stroke="grey" stroke-width="2" d="M282.62,-143.15C269.68,-134.84 254.07,-124.82 240.01,-115.79"/>
<polygon fill="grey" stroke="grey" stroke-width="2" points="241.99,-112.91 231.69,-110.45 238.21,-118.8 241.99,-112.91"/>
</g>
<!-- 3&#45;&gt;4 -->
<g id="edge19" class="edge">
<title>3&#45;&gt;4</title>
<path fill="none" stroke="grey" stroke-width="2" d="M314.95,-143.34C316.66,-136.67 318.66,-128.89 320.59,-121.39"/>
<polygon fill="grey" stroke="grey" stroke-width="2" points="323.95,-122.39 323.05,-111.83 317.17,-120.65 323.95,-122.39"/>
</g>
<!-- 3&#45;&gt;5 -->
<g id="edge23" class="edge">
<title>3&#45;&gt;5</title>
<path fill="none" stroke="grey" stroke-width="2" d="M264.14,-147.34C228.89,-136.93 179.85,-122.44 140.32,-110.77"/>
<polygon fill="grey" stroke="grey" stroke-width="2" points="141.34,-107.42 130.76,-107.94 139.35,-114.13 141.34,-107.42"/>
</g>
<!-- 3&#45;&gt;6 -->
<g id="edge25" class="edge">
<title>3&#45;&gt;6</title>
<path fill="none" stroke="grey" stroke-width="2" d="M348.13,-143.15C366.59,-134.43 389.04,-123.81 408.86,-114.43"/>
<polygon fill="grey" stroke="grey" stroke-width="2" points="410.21,-117.67 417.75,-110.23 407.21,-111.34 410.21,-117.67"/>
</g>
<!-- 4&#45;&gt;0 -->
<g id="edge4" class="edge">
<title>4&#45;&gt;0</title>
<path fill="none" stroke="grey" stroke-width="2" d="M382.62,-74.03C385.59,-73.32 388.53,-72.63 391.4,-72 486.22,-51.07 599.02,-33.43 657.96,-24.76"/>
<polygon fill="grey" stroke="grey" stroke-width="2" points="658.33,-28.24 667.72,-23.34 657.32,-21.32 658.33,-28.24"/>
</g>
<!-- 5&#45;&gt;0 -->
<g id="edge12" class="edge">
<title>5&#45;&gt;0</title>
<path fill="none" stroke="grey" stroke-width="2" d="M127.91,-73.69C130.77,-73.07 133.62,-72.5 136.4,-72 329.7,-37.07 564.81,-24.35 657.78,-20.47"/>
<polygon fill="grey" stroke="grey" stroke-width="2" points="657.82,-23.97 667.67,-20.07 657.54,-16.98 657.82,-23.97"/>
</g>
<!-- 6&#45;&gt;0 -->
<g id="edge10" class="edge">
<title>6&#45;&gt;0</title>
<path fill="none" stroke="grey" stroke-width="2" d="M517.42,-71.79C561.09,-59.05 619.45,-42.03 657.94,-30.8"/>
<polygon fill="grey" stroke="grey" stroke-width="2" points="658.9,-34.17 667.52,-28.01 656.94,-27.45 658.9,-34.17"/>
</g>
<!-- 7 -->
<g id="node8" class="node">
<title>7</title>
<path fill="none" stroke="#5692d8" stroke-width="2" d="M654.03,-252C654.03,-252 608.78,-252 608.78,-252 602.78,-252 596.78,-246 596.78,-240 596.78,-240 596.78,-228 596.78,-228 596.78,-222 602.78,-216 608.78,-216 608.78,-216 654.03,-216 654.03,-216 660.03,-216 666.03,-222 666.03,-228 666.03,-228 666.03,-240 666.03,-240 666.03,-246 660.03,-252 654.03,-252"/>
<text xml:space="preserve" text-anchor="middle" x="631.4" y="-230.12" font-family="sans" font-size="10.00">umap_graph</text>
</g>
<!-- 7&#45;&gt;0 -->
<g id="edge7" class="edge">
<title>7&#45;&gt;0</title>
<path fill="none" stroke="grey" stroke-width="2" d="M666.69,-224.8C717.99,-210.75 811.41,-176.72 851.4,-108 859.45,-94.17 860.68,-85.03 851.4,-72 826.07,-36.41 775.1,-24.5 738.97,-20.63"/>
<polygon fill="grey" stroke="grey" stroke-width="2" points="739.68,-17.18 729.42,-19.81 739.08,-24.16 739.68,-17.18"/>
</g>
<!-- 8 -->
<g id="node9" class="node">
<title>8</title>
<path fill="none" stroke="#56a2d8" stroke-width="2" d="M556.65,-180C556.65,-180 506.15,-180 506.15,-180 500.15,-180 494.15,-174 494.15,-168 494.15,-168 494.15,-156 494.15,-156 494.15,-150 500.15,-144 506.15,-144 506.15,-144 556.65,-144 556.65,-144 562.65,-144 568.65,-150 568.65,-156 568.65,-156 568.65,-168 568.65,-168 568.65,-174 562.65,-180 556.65,-180"/>
<text xml:space="preserve" text-anchor="middle" x="531.4" y="-158.12" font-family="sans" font-size="10.00">umap_embed</text>
</g>
<!-- 7&#45;&gt;8 -->
<g id="edge29" class="edge">
<title>7&#45;&gt;8</title>
<path fill="none" stroke="grey" stroke-width="2" d="M605.91,-215.15C594.16,-206.93 580,-197.02 567.2,-188.06"/>
<polygon fill="grey" stroke="grey" stroke-width="2" points="569.53,-185.42 559.33,-182.55 565.52,-191.15 569.53,-185.42"/>
</g>
<!-- 9 -->
<g id="node10" class="node">
<title>9</title>
<path fill="none" stroke="#bed856" stroke-width="2" d="M664.53,-180C664.53,-180 598.28,-180 598.28,-180 592.28,-180 586.28,-174 586.28,-168 586.28,-168 586.28,-156 586.28,-156 586.28,-150 592.28,-144 598.28,-144 598.28,-144 664.53,-144 664.53,-144 670.53,-144 676.53,-150 676.53,-156 676.53,-156 676.53,-168 676.53,-168 676.53,-174 670.53,-180 664.53,-180"/>
<text xml:space="preserve" text-anchor="middle" x="631.4" y="-158.12" font-family="sans" font-size="10.00">densmap_embed</text>
</g>
<!-- 7&#45;&gt;9 -->
<g id="edge30" class="edge">
<title>7&#45;&gt;9</title>
<path fill="none" stroke="grey" stroke-width="2" d="M631.4,-215.34C631.4,-208.75 631.4,-201.08 631.4,-193.67"/>
<polygon fill="grey" stroke="grey" stroke-width="2" points="634.9,-193.93 631.4,-183.93 627.9,-193.93 634.9,-193.93"/>
</g>
<!-- 8&#45;&gt;0 -->
<g id="edge5" class="edge">
<title>8&#45;&gt;0</title>
<path fill="none" stroke="grey" stroke-width="2" d="M533.39,-143.34C536.5,-123.55 544.3,-91.67 563.4,-72 588.7,-45.96 628.32,-32.44 658.1,-25.6"/>
<polygon fill="grey" stroke="grey" stroke-width="2" points="658.57,-29.08 667.64,-23.6 657.14,-22.23 658.57,-29.08"/>
</g>
<!-- 8&#45;&gt;2 -->
<g id="edge17" class="edge">
<title>8&#45;&gt;2</title>
<path fill="none" stroke="grey" stroke-width="2" d="M493.51,-154.14C444.37,-145.09 355.69,-128.23 270.6,-108.9"/>
<polygon fill="grey" stroke="grey" stroke-width="2" points="271.56,-105.53 261.03,-106.71 269.99,-112.35 271.56,-105.53"/>
</g>
<!-- 8&#45;&gt;4 -->
<g id="edge21" class="edge">
<title>8&#45;&gt;4</title>
<path fill="none" stroke="grey" stroke-width="2" d="M493.22,-147.83C464.89,-138.06 425.59,-124.51 392.48,-113.09"/>
<polygon fill="grey" stroke="grey" stroke-width="2" points="394.04,-109.93 383.45,-109.98 391.76,-116.55 394.04,-109.93"/>
</g>
<!-- 8&#45;&gt;6 -->
<g id="edge27" class="edge">
<title>8&#45;&gt;6</title>
<path fill="none" stroke="grey" stroke-width="2" d="M512.98,-143.34C504.92,-135.6 495.28,-126.36 486.36,-117.81"/>
<polygon fill="grey" stroke="grey" stroke-width="2" points="488.9,-115.39 479.26,-111 484.05,-120.44 488.9,-115.39"/>
</g>
<!-- 10 -->
<g id="node11" class="node">
<title>10</title>
<path fill="none" stroke="#56d8d0" stroke-width="2" d="M678.78,-108C678.78,-108 584.03,-108 584.03,-108 578.03,-108 572.03,-102 572.03,-96 572.03,-96 572.03,-84 572.03,-84 572.03,-78 578.03,-72 584.03,-72 584.03,-72 678.78,-72 678.78,-72 684.78,-72 690.78,-78 690.78,-84 690.78,-84 690.78,-96 690.78,-96 690.78,-102 684.78,-108 678.78,-108"/>
<text xml:space="preserve" text-anchor="middle" x="631.4" y="-86.12" font-family="sans" font-size="10.00">plot_umap_connectivity</text>
</g>
<!-- 8&#45;&gt;10 -->
<g id="edge32" class="edge">
<title>8&#45;&gt;10</title>
<path fill="none" stroke="grey" stroke-width="2" d="M556.9,-143.15C568.65,-134.93 582.81,-125.02 595.61,-116.06"/>
<polygon fill="grey" stroke="grey" stroke-width="2" points="597.29,-119.15 603.48,-110.55 593.28,-113.42 597.29,-119.15"/>
</g>
<!-- 11 -->
<g id="node12" class="node">
<title>11</title>
<path fill="none" stroke="#56c9d8" stroke-width="2" d="M812.28,-108C812.28,-108 720.53,-108 720.53,-108 714.53,-108 708.53,-102 708.53,-96 708.53,-96 708.53,-84 708.53,-84 708.53,-78 714.53,-72 720.53,-72 720.53,-72 812.28,-72 812.28,-72 818.28,-72 824.28,-78 824.28,-84 824.28,-84 824.28,-96 824.28,-96 824.28,-102 818.28,-108 812.28,-108"/>
<text xml:space="preserve" text-anchor="middle" x="766.4" y="-86.12" font-family="sans" font-size="10.00">plot_umap_diagnostics</text>
</g>
<!-- 8&#45;&gt;11 -->
<g id="edge34" class="edge">
<title>8&#45;&gt;11</title>
<path fill="none" stroke="grey" stroke-width="2" d="M569.47,-146.66C572.15,-145.74 574.81,-144.84 577.4,-144 616.11,-131.44 659.84,-119.07 695.47,-109.44"/>
<polygon fill="grey" stroke="grey" stroke-width="2" points="696.04,-112.91 704.79,-106.93 694.23,-106.15 696.04,-112.91"/>
</g>
<!-- 9&#45;&gt;0 -->
<g id="edge13" class="edge">
<title>9&#45;&gt;0</title>
<path fill="none" stroke="grey" stroke-width="2" d="M677.16,-155.47C730.7,-147.95 814.47,-132.54 833.4,-108 843.18,-95.33 842.42,-85.22 833.4,-72 812.43,-41.24 770.64,-28.33 739.08,-22.91"/>
<polygon fill="grey" stroke="grey" stroke-width="2" points="739.68,-19.46 729.27,-21.46 738.65,-26.39 739.68,-19.46"/>
</g>
<!-- 9&#45;&gt;2 -->
<g id="edge16" class="edge">
<title>9&#45;&gt;2</title>
<path fill="none" stroke="grey" stroke-width="2" d="M585.31,-145.86C582.65,-145.18 580,-144.55 577.4,-144 445.31,-115.83 405.48,-132.61 270.83,-108.67"/>
<polygon fill="grey" stroke="grey" stroke-width="2" points="271.82,-105.29 261.35,-106.93 270.55,-112.17 271.82,-105.29"/>
</g>
<!-- 9&#45;&gt;4 -->
<g id="edge20" class="edge">
<title>9&#45;&gt;4</title>
<path fill="none" stroke="grey" stroke-width="2" d="M585.55,-146.17C582.8,-145.41 580.07,-144.68 577.4,-144 499.61,-124.29 475.66,-126.69 394.97,-108.71"/>
<polygon fill="grey" stroke="grey" stroke-width="2" points="396.12,-105.38 385.59,-106.57 394.56,-112.21 396.12,-105.38"/>
</g>
<!-- 9&#45;&gt;6 -->
<g id="edge26" class="edge">
<title>9&#45;&gt;6</title>
<path fill="none" stroke="grey" stroke-width="2" d="M587.3,-143.15C565.22,-134.22 538.25,-123.31 514.69,-113.77"/>
<polygon fill="grey" stroke="grey" stroke-width="2" points="516.12,-110.58 505.53,-110.07 513.49,-117.06 516.12,-110.58"/>
</g>
<!-- 9&#45;&gt;10 -->
<g id="edge31" class="edge">
<title>9&#45;&gt;10</title>
<path fill="none" stroke="grey" stroke-width="2" d="M631.4,-143.34C631.4,-136.75 631.4,-129.08 631.4,-121.67"/>
<polygon fill="grey" stroke="grey" stroke-width="2" points="634.9,-121.93 631.4,-111.93 627.9,-121.93 634.9,-121.93"/>
</g>
<!-- 9&#45;&gt;11 -->
<g id="edge33" class="edge">
<title>9&#45;&gt;11</title>
<path fill="none" stroke="grey" stroke-width="2" d="M665.82,-143.15C682.48,-134.52 702.71,-124.02 720.65,-114.72"/>
<polygon fill="grey" stroke="grey" stroke-width="2" points="722.1,-117.92 729.36,-110.21 718.87,-111.7 722.1,-117.92"/>
</g>
<!-- 10&#45;&gt;0 -->
<g id="edge2" class="edge">
<title>10&#45;&gt;0</title>
<path fill="none" stroke="grey" stroke-width="2" d="M648.31,-71.34C655.63,-63.69 664.37,-54.56 672.48,-46.08"/>
<polygon fill="grey" stroke="grey" stroke-width="2" points="674.79,-48.73 679.18,-39.09 669.73,-43.89 674.79,-48.73"/>
</g>
<!-- 11&#45;&gt;0 -->
<g id="edge6" class="edge">
<title>11&#45;&gt;0</title>
<path fill="none" stroke="grey" stroke-width="2" d="M749.24,-71.34C741.81,-63.69 732.94,-54.56 724.71,-46.08"/>
<polygon fill="grey" stroke="grey" stroke-width="2" points="727.38,-43.81 717.9,-39.07 722.36,-48.68 727.38,-43.81"/>
</g>
<!-- 12 -->
<g id="node13" class="node">
<title>12</title>
<path fill="none" stroke="#56d89a" stroke-width="2" d="M980.65,-108C980.65,-108 930.15,-108 930.15,-108 924.15,-108 918.15,-102 918.15,-96 918.15,-96 918.15,-84 918.15,-84 918.15,-78 924.15,-72 930.15,-72 930.15,-72 980.65,-72 980.65,-72 986.65,-72 992.65,-78 992.65,-84 992.65,-84 992.65,-96 992.65,-96 992.65,-102 986.65,-108 980.65,-108"/>
<text xml:space="preserve" text-anchor="middle" x="955.4" y="-86.12" font-family="sans" font-size="10.00">plot_heatmap</text>
</g>
<!-- 12&#45;&gt;0 -->
<g id="edge3" class="edge">
<title>12&#45;&gt;0</title>
<path fill="none" stroke="grey" stroke-width="2" d="M917.34,-75.99C912.99,-74.6 908.61,-73.24 904.4,-72 847.35,-55.17 780.54,-38.54 738.84,-28.52"/>
<polygon fill="grey" stroke="grey" stroke-width="2" points="739.71,-25.13 729.17,-26.21 738.08,-31.94 739.71,-25.13"/>
</g>
<!-- 13 -->
<g id="node14" class="node">
<title>13</title>
<path fill="none" stroke="#afd856" stroke-width="2" d="M991.9,-180C991.9,-180 930.9,-180 930.9,-180 924.9,-180 918.9,-174 918.9,-168 918.9,-168 918.9,-156 918.9,-156 918.9,-150 924.9,-144 930.9,-144 930.9,-144 991.9,-144 991.9,-144 997.9,-144 1003.9,-150 1003.9,-156 1003.9,-156 1003.9,-168 1003.9,-168 1003.9,-174 997.9,-180 991.9,-180"/>
<text xml:space="preserve" text-anchor="middle" x="961.4" y="-158.12" font-family="sans" font-size="10.00">distance_matrix</text>
</g>
<!-- 13&#45;&gt;12 -->
<g id="edge35" class="edge">
<title>13&#45;&gt;12</title>
<path fill="none" stroke="grey" stroke-width="2" d="M959.89,-143.34C959.33,-136.75 958.67,-129.08 958.03,-121.67"/>
<polygon fill="grey" stroke="grey" stroke-width="2" points="961.54,-121.58 957.2,-111.92 954.56,-122.18 961.54,-121.58"/>
</g>
<!-- 14 -->
<g id="node15" class="node">
<title>14</title>
<path fill="none" stroke="#97d856" stroke-width="2" d="M1062.4,-108C1062.4,-108 1022.4,-108 1022.4,-108 1016.4,-108 1010.4,-102 1010.4,-96 1010.4,-96 1010.4,-84 1010.4,-84 1010.4,-78 1016.4,-72 1022.4,-72 1022.4,-72 1062.4,-72 1062.4,-72 1068.4,-72 1074.4,-78 1074.4,-84 1074.4,-84 1074.4,-96 1074.4,-96 1074.4,-102 1068.4,-108 1062.4,-108"/>
<text xml:space="preserve" text-anchor="middle" x="1042.4" y="-86.12" font-family="sans" font-size="10.00">env_export</text>
</g>
<!-- 14&#45;&gt;0 -->
<g id="edge11" class="edge">
<title>14&#45;&gt;0</title>
<path fill="none" stroke="grey" stroke-width="2" d="M1009.51,-74.63C1006.79,-73.67 1004.07,-72.77 1001.4,-72 909.35,-45.22 797.41,-29.94 738.73,-23.19"/>
<polygon fill="grey" stroke="grey" stroke-width="2" points="739.36,-19.74 729.03,-22.11 738.58,-26.7 739.36,-19.74"/>
</g>
<!-- 15 -->
<g id="node16" class="node">
<title>15</title>
<path fill="none" stroke="#d6d856" stroke-width="2" d="M1154.65,-108C1154.65,-108 1104.15,-108 1104.15,-108 1098.15,-108 1092.15,-102 1092.15,-96 1092.15,-96 1092.15,-84 1092.15,-84 1092.15,-78 1098.15,-72 1104.15,-72 1104.15,-72 1154.65,-72 1154.65,-72 1160.65,-72 1166.65,-78 1166.65,-84 1166.65,-84 1166.65,-96 1166.65,-96 1166.65,-102 1160.65,-108 1154.65,-108"/>
<text xml:space="preserve" text-anchor="middle" x="1129.4" y="-86.12" font-family="sans" font-size="10.00">config_export</text>
</g>
<!-- 15&#45;&gt;0 -->
<g id="edge1" class="edge">
<title>15&#45;&gt;0</title>
<path fill="none" stroke="grey" stroke-width="2" d="M1091.2,-74.17C1088.58,-73.38 1085.96,-72.64 1083.4,-72 960.12,-41.12 809.83,-26.99 739.01,-21.68"/>
<polygon fill="grey" stroke="grey" stroke-width="2" points="739.59,-18.21 729.36,-20.98 739.08,-25.19 739.59,-18.21"/>
</g>
<!-- 16 -->
<g id="node17" class="node">
<title>16</title>
<path fill="none" stroke="#d8a456" stroke-width="2" d="M1244.53,-108C1244.53,-108 1196.28,-108 1196.28,-108 1190.28,-108 1184.28,-102 1184.28,-96 1184.28,-96 1184.28,-84 1184.28,-84 1184.28,-78 1190.28,-72 1196.28,-72 1196.28,-72 1244.53,-72 1244.53,-72 1250.53,-72 1256.53,-78 1256.53,-84 1256.53,-84 1256.53,-96 1256.53,-96 1256.53,-102 1250.53,-108 1244.53,-108"/>
<text xml:space="preserve" text-anchor="middle" x="1220.4" y="-86.12" font-family="sans" font-size="10.00">annot_export</text>
</g>
<!-- 16&#45;&gt;0 -->
<g id="edge9" class="edge">
<title>16&#45;&gt;0</title>
<path fill="none" stroke="grey" stroke-width="2" d="M1183.31,-74.17C1180.65,-73.36 1178,-72.62 1175.4,-72 1016.93,-33.9 822.14,-23.08 739.06,-20.1"/>
<polygon fill="grey" stroke="grey" stroke-width="2" points="739.38,-16.61 729.27,-19.77 739.15,-23.6 739.38,-16.61"/>
</g>
</g>
</svg>
