<?xml version="1.0" encoding="UTF-8" standalone="no"?>
<!DOCTYPE svg PUBLIC "-//W3C//DTD SVG 1.1//EN"
 "http://www.w3.org/Graphics/SVG/1.1/DTD/svg11.dtd">
<!-- Generated by graphviz version 14.1.2 (0)
 -->
<!-- Title: snakemake_dag Pages: 1 -->
<svg width="1806pt" height="548pt"
 viewBox="0.00 0.00 1806.00 548.00" xmlns="http://www.w3.org/2000/svg" xmlns:xlink="http://www.w3.org/1999/xlink">
<g id="graph0" class="graph" transform="scale(1 1) rotate(0) translate(4 544)">
<title>snakemake_dag</title>
<polygon fill="white" stroke="none" points="-4,4 -4,-544 1802,-544 1802,4 -4,4"/>
<!-- 0 -->
<g id="node1" class="node">
<title>0</title>
<path fill="none" stroke="#d88d56" stroke-width="2" d="M1141.88,-36C1141.88,-36 1111.88,-36 1111.88,-36 1105.88,-36 1099.88,-30 1099.88,-24 1099.88,-24 1099.88,-12 1099.88,-12 1099.88,-6 1105.88,0 1111.88,0 1111.88,0 1141.88,0 1141.88,0 1147.88,0 1153.88,-6 1153.88,-12 1153.88,-12 1153.88,-24 1153.88,-24 1153.88,-30 1147.88,-36 1141.88,-36"/>
<text xml:space="preserve" text-anchor="middle" x="1126.88" y="-14.12" font-family="sans" font-size="10.00">all</text>
</g>
<!-- 1 -->
<g id="node2" class="node">
<title>1</title>
<path fill="none" stroke="#70d856" stroke-width="2" d="M708.88,-324C708.88,-324 678.88,-324 678.88,-324 672.88,-324 666.88,-318 666.88,-312 666.88,-312 666.88,-300 666.88,-300 666.88,-294 672.88,-288 678.88,-288 678.88,-288 708.88,-288 708.88,-288 714.88,-288 720.88,-294 720.88,-300 720.88,-300 720.88,-312 720.88,-312 720.88,-318 714.88,-324 708.88,-324"/>
<text xml:space="preserve" text-anchor="middle" x="693.88" y="-302.12" font-family="sans" font-size="10.00">pca</text>
</g>
<!-- 1&#45;&gt;0 -->
<g id="edge16" class="edge">
<title>1&#45;&gt;0</title>
<path fill="none" stroke="grey" stroke-width="2" d="M665.98,-293.52C660.08,-291.43 653.83,-289.45 647.88,-288 518.41,-256.52 281.97,-326.18 356.88,-216 405.78,-144.06 457.93,-175.85 538.88,-144 620.59,-111.85 637.83,-93.87 722.88,-72 853.16,-38.5 1012.81,-25.52 1086.31,-21.07"/>
<polygon fill="grey" stroke="grey" stroke-width="2" points="1086.2,-24.58 1095.98,-20.5 1085.8,-17.59 1086.2,-24.58"/>
</g>
<!-- 2 -->
<g id="node3" class="node">
<title>2</title>
<path fill="none" stroke="#56d88a" stroke-width="2" d="M747.88,-252C747.88,-252 659.88,-252 659.88,-252 653.88,-252 647.88,-246 647.88,-240 647.88,-240 647.88,-228 647.88,-228 647.88,-222 653.88,-216 659.88,-216 659.88,-216 747.88,-216 747.88,-216 753.88,-216 759.88,-222 759.88,-228 759.88,-228 759.88,-240 759.88,-240 759.88,-246 753.88,-252 747.88,-252"/>
<text xml:space="preserve" text-anchor="middle" x="703.88" y="-230.12" font-family="sans" font-size="10.00">plot_dimred_metadata</text>
</g>
<!-- 1&#45;&gt;2 -->
<g id="edge23" class="edge">
<title>1&#45;&gt;2</title>
<path fill="none" stroke="grey" stroke-width="2" d="M696.4,-287.34C697.34,-280.75 698.44,-273.08 699.49,-265.67"/>
<polygon fill="grey" stroke="grey" stroke-width="2" points="702.94,-266.29 700.89,-255.9 696.01,-265.3 702.94,-266.29"/>
</g>
<!-- 8 -->
<g id="node9" class="node">
<title>8</title>
<path fill="none" stroke="#56d863" stroke-width="2" d="M1138.25,-252C1138.25,-252 1055.5,-252 1055.5,-252 1049.5,-252 1043.5,-246 1043.5,-240 1043.5,-240 1043.5,-228 1043.5,-228 1043.5,-222 1049.5,-216 1055.5,-216 1055.5,-216 1138.25,-216 1138.25,-216 1144.25,-216 1150.25,-222 1150.25,-228 1150.25,-228 1150.25,-240 1150.25,-240 1150.25,-246 1144.25,-252 1138.25,-252"/>
<text xml:space="preserve" text-anchor="middle" x="1096.88" y="-230.12" font-family="sans" font-size="10.00">plot_dimred_features</text>
</g>
<!-- 1&#45;&gt;8 -->
<g id="edge29" class="edge">
<title>1&#45;&gt;8</title>
<path fill="none" stroke="grey" stroke-width="2" d="M721.84,-290.74C724.51,-289.7 727.22,-288.76 729.88,-288 857.11,-251.51 898.41,-276.5 1029.96,-252.76"/>
<polygon fill="grey" stroke="grey" stroke-width="2" points="1030.39,-256.24 1039.57,-250.95 1029.1,-249.36 1030.39,-256.24"/>
</g>
<!-- 9 -->
<g id="node10" class="node">
<title>9</title>
<path fill="none" stroke="#61d856" stroke-width="2" d="M1013.62,-252C1013.62,-252 924.12,-252 924.12,-252 918.12,-252 912.12,-246 912.12,-240 912.12,-240 912.12,-228 912.12,-228 912.12,-222 918.12,-216 924.12,-216 924.12,-216 1013.62,-216 1013.62,-216 1019.62,-216 1025.62,-222 1025.62,-228 1025.62,-228 1025.62,-240 1025.62,-240 1025.62,-246 1019.62,-252 1013.62,-252"/>
<text xml:space="preserve" text-anchor="middle" x="968.88" y="-230.12" font-family="sans" font-size="10.00">plot_dimred_clustering</text>
</g>
<!-- 1&#45;&gt;9 -->
<g id="edge32" class="edge">
<title>1&#45;&gt;9</title>
<path fill="none" stroke="grey" stroke-width="2" d="M721.52,-291.16C724.3,-290 727.12,-288.92 729.88,-288 800.56,-264.33 824.01,-269.2 898.85,-252.81"/>
<polygon fill="grey" stroke="grey" stroke-width="2" points="899.39,-256.28 908.37,-250.66 897.84,-249.45 899.39,-256.28"/>
</g>
<!-- 10 -->
<g id="node11" class="node">
<title>10</title>
<path fill="none" stroke="#56d8c1" stroke-width="2" d="M461.62,-252C461.62,-252 378.12,-252 378.12,-252 372.12,-252 366.12,-246 366.12,-240 366.12,-240 366.12,-228 366.12,-228 366.12,-222 372.12,-216 378.12,-216 378.12,-216 461.62,-216 461.62,-216 467.62,-216 473.62,-222 473.62,-228 473.62,-228 473.62,-240 473.62,-240 473.62,-246 467.62,-252 461.62,-252"/>
<text xml:space="preserve" text-anchor="middle" x="419.88" y="-230.12" font-family="sans" font-size="10.00">plot_pca_diagnostics</text>
</g>
<!-- 1&#45;&gt;10 -->
<g id="edge36" class="edge">
<title>1&#45;&gt;10</title>
<path fill="none" stroke="grey" stroke-width="2" d="M666.35,-294.12C660.32,-291.93 653.92,-289.77 647.88,-288 579.63,-268.05 558.05,-269.55 486.84,-252.87"/>
<polygon fill="grey" stroke="grey" stroke-width="2" points="487.95,-249.54 477.41,-250.61 486.32,-256.34 487.95,-249.54"/>
</g>
<!-- 11 -->
<g id="node12" class="node">
<title>11</title>
<path fill="none" stroke="#56d873" stroke-width="2" d="M882.12,-252C882.12,-252 789.62,-252 789.62,-252 783.62,-252 777.62,-246 777.62,-240 777.62,-240 777.62,-228 777.62,-228 777.62,-222 783.62,-216 789.62,-216 789.62,-216 882.12,-216 882.12,-216 888.12,-216 894.12,-222 894.12,-228 894.12,-228 894.12,-240 894.12,-240 894.12,-246 888.12,-252 882.12,-252"/>
<text xml:space="preserve" text-anchor="middle" x="835.88" y="-230.12" font-family="sans" font-size="10.00">plot_dimred_interactive</text>
</g>
<!-- 1&#45;&gt;11 -->
<g id="edge42" class="edge">
<title>1&#45;&gt;11</title>
<path fill="none" stroke="grey" stroke-width="2" d="M721.59,-291.34C740.47,-282.03 765.96,-269.46 788.08,-258.56"/>
<polygon fill="grey" stroke="grey" stroke-width="2" points="789.48,-261.77 796.9,-254.21 786.38,-255.5 789.48,-261.77"/>
</g>
<!-- 23 -->
<g id="node24" class="node">
<title>23</title>
<path fill="none" stroke="#566bd8" stroke-width="2" d="M297.88,-252C297.88,-252 227.88,-252 227.88,-252 221.88,-252 215.88,-246 215.88,-240 215.88,-240 215.88,-228 215.88,-228 215.88,-222 221.88,-216 227.88,-216 227.88,-216 297.88,-216 297.88,-216 303.88,-216 309.88,-222 309.88,-228 309.88,-228 309.88,-240 309.88,-240 309.88,-246 303.88,-252 297.88,-252"/>
<text xml:space="preserve" text-anchor="middle" x="262.88" y="-230.12" font-family="sans" font-size="10.00">validation_internal</text>
</g>
<!-- 1&#45;&gt;23 -->
<g id="edge57" class="edge">
<title>1&#45;&gt;23</title>
<path fill="none" stroke="grey" stroke-width="2" d="M665.99,-293.47C660.09,-291.37 653.84,-289.41 647.88,-288 506.88,-254.64 466.12,-279.54 323.88,-252 323.61,-251.95 323.33,-251.89 323.06,-251.84"/>
<polygon fill="grey" stroke="grey" stroke-width="2" points="324.13,-248.49 313.61,-249.75 322.62,-255.33 324.13,-248.49"/>
</g>
<!-- 2&#45;&gt;0 -->
<g id="edge3" class="edge">
<title>2&#45;&gt;0</title>
<path fill="none" stroke="grey" stroke-width="2" d="M734.69,-215.1C788.23,-184.28 902.24,-119.91 1001.88,-72 1030.04,-58.46 1062.57,-44.72 1087.38,-34.63"/>
<polygon fill="grey" stroke="grey" stroke-width="2" points="1088.46,-37.97 1096.43,-30.98 1085.84,-31.48 1088.46,-37.97"/>
</g>
<!-- 3 -->
<g id="node4" class="node">
<title>3</title>
<path fill="none" stroke="#56b9d8" stroke-width="2" d="M818.38,-324C818.38,-324 751.38,-324 751.38,-324 745.38,-324 739.38,-318 739.38,-312 739.38,-312 739.38,-300 739.38,-300 739.38,-294 745.38,-288 751.38,-288 751.38,-288 818.38,-288 818.38,-288 824.38,-288 830.38,-294 830.38,-300 830.38,-300 830.38,-312 830.38,-312 830.38,-318 824.38,-324 818.38,-324"/>
<text xml:space="preserve" text-anchor="middle" x="784.88" y="-302.12" font-family="sans" font-size="10.00">prep_feature_plot</text>
</g>
<!-- 3&#45;&gt;2 -->
<g id="edge22" class="edge">
<title>3&#45;&gt;2</title>
<path fill="none" stroke="grey" stroke-width="2" d="M764.44,-287.34C755.3,-279.44 744.33,-269.96 734.26,-261.26"/>
<polygon fill="grey" stroke="grey" stroke-width="2" points="736.73,-258.77 726.88,-254.88 732.16,-264.07 736.73,-258.77"/>
</g>
<!-- 3&#45;&gt;8 -->
<g id="edge27" class="edge">
<title>3&#45;&gt;8</title>
<path fill="none" stroke="grey" stroke-width="2" d="M831.14,-296.04C878.8,-286.62 955.53,-270.94 1030.35,-253.03"/>
<polygon fill="grey" stroke="grey" stroke-width="2" points="1030.98,-256.48 1039.88,-250.73 1029.34,-249.68 1030.98,-256.48"/>
</g>
<!-- 3&#45;&gt;10 -->
<g id="edge35" class="edge">
<title>3&#45;&gt;10</title>
<path fill="none" stroke="grey" stroke-width="2" d="M738.5,-290.11C735.59,-289.35 732.7,-288.64 729.88,-288 625.68,-264.45 593.85,-273.73 487.1,-252.71"/>
<polygon fill="grey" stroke="grey" stroke-width="2" points="487.88,-249.3 477.38,-250.74 486.49,-256.16 487.88,-249.3"/>
</g>
<!-- 3&#45;&gt;11 -->
<g id="edge41" class="edge">
<title>3&#45;&gt;11</title>
<path fill="none" stroke="grey" stroke-width="2" d="M797.74,-287.34C803.08,-280.01 809.4,-271.34 815.35,-263.18"/>
<polygon fill="grey" stroke="grey" stroke-width="2" points="817.99,-265.49 821.05,-255.35 812.33,-261.37 817.99,-265.49"/>
</g>
<!-- 19 -->
<g id="node20" class="node">
<title>19</title>
<path fill="none" stroke="#d8cb56" stroke-width="2" d="M617.62,-252C617.62,-252 504.12,-252 504.12,-252 498.12,-252 492.12,-246 492.12,-240 492.12,-240 492.12,-228 492.12,-228 492.12,-222 498.12,-216 504.12,-216 504.12,-216 617.62,-216 617.62,-216 623.62,-216 629.62,-222 629.62,-228 629.62,-228 629.62,-240 629.62,-240 629.62,-246 623.62,-252 617.62,-252"/>
<text xml:space="preserve" text-anchor="middle" x="560.88" y="-230.12" font-family="sans" font-size="10.00">clustree_analysis_metadata</text>
</g>
<!-- 3&#45;&gt;19 -->
<g id="edge51" class="edge">
<title>3&#45;&gt;19</title>
<path fill="none" stroke="grey" stroke-width="2" d="M738.46,-290.5C707.28,-280.75 665.63,-267.74 630.5,-256.76"/>
<polygon fill="grey" stroke="grey" stroke-width="2" points="631.86,-253.51 621.27,-253.87 629.77,-260.2 631.86,-253.51"/>
</g>
<!-- 4 -->
<g id="node5" class="node">
<title>4</title>
<path fill="none" stroke="#d85656" stroke-width="2" d="M626.62,-324C626.62,-324 495.12,-324 495.12,-324 489.12,-324 483.12,-318 483.12,-312 483.12,-312 483.12,-300 483.12,-300 483.12,-294 489.12,-288 495.12,-288 495.12,-288 626.62,-288 626.62,-288 632.62,-288 638.62,-294 638.62,-300 638.62,-300 638.62,-312 638.62,-312 638.62,-318 632.62,-324 626.62,-324"/>
<text xml:space="preserve" text-anchor="middle" x="560.88" y="-302.12" font-family="sans" font-size="10.00">aggregate_all_clustering_results</text>
</g>
<!-- 4&#45;&gt;2 -->
<g id="edge20" class="edge">
<title>4&#45;&gt;2</title>
<path fill="none" stroke="grey" stroke-width="2" d="M597.33,-287.15C615.15,-278.43 636.82,-267.82 655.96,-258.46"/>
<polygon fill="grey" stroke="grey" stroke-width="2" points="657.32,-261.68 664.77,-254.14 654.25,-255.4 657.32,-261.68"/>
</g>
<!-- 4&#45;&gt;9 -->
<g id="edge33" class="edge">
<title>4&#45;&gt;9</title>
<path fill="none" stroke="grey" stroke-width="2" d="M639.46,-291.04C645.69,-289.99 651.88,-288.97 657.88,-288 762.5,-271.15 792.77,-273.54 898.76,-252.71"/>
<polygon fill="grey" stroke="grey" stroke-width="2" points="899.27,-256.18 908.4,-250.79 897.91,-249.31 899.27,-256.18"/>
</g>
<!-- 4&#45;&gt;10 -->
<g id="edge37" class="edge">
<title>4&#45;&gt;10</title>
<path fill="none" stroke="grey" stroke-width="2" d="M524.93,-287.15C507.45,-278.47 486.19,-267.92 467.39,-258.59"/>
<polygon fill="grey" stroke="grey" stroke-width="2" points="468.98,-255.47 458.47,-254.16 465.87,-261.74 468.98,-255.47"/>
</g>
<!-- 4&#45;&gt;11 -->
<g id="edge39" class="edge">
<title>4&#45;&gt;11</title>
<path fill="none" stroke="grey" stroke-width="2" d="M631.34,-287.06C672.15,-276.68 723.4,-263.63 764.39,-253.2"/>
<polygon fill="grey" stroke="grey" stroke-width="2" points="764.99,-256.65 773.82,-250.8 763.27,-249.87 764.99,-256.65"/>
</g>
<!-- 18 -->
<g id="node19" class="node">
<title>18</title>
<path fill="none" stroke="#d8b456" stroke-width="2" d="M79.75,-180C79.75,-180 12,-180 12,-180 6,-180 0,-174 0,-168 0,-168 0,-156 0,-156 0,-150 6,-144 12,-144 12,-144 79.75,-144 79.75,-144 85.75,-144 91.75,-150 91.75,-156 91.75,-156 91.75,-168 91.75,-168 91.75,-174 85.75,-180 79.75,-180"/>
<text xml:space="preserve" text-anchor="middle" x="45.88" y="-158.12" font-family="sans" font-size="10.00">clustree_analysis</text>
</g>
<!-- 4&#45;&gt;18 -->
<g id="edge50" class="edge">
<title>4&#45;&gt;18</title>
<path fill="none" stroke="grey" stroke-width="2" d="M482.34,-305.02C401.98,-302.61 274.79,-291.94 172.88,-252 135.59,-237.39 98.75,-209.71 74.44,-189.08"/>
<polygon fill="grey" stroke="grey" stroke-width="2" points="76.95,-186.63 67.1,-182.71 72.36,-191.91 76.95,-186.63"/>
</g>
<!-- 4&#45;&gt;19 -->
<g id="edge52" class="edge">
<title>4&#45;&gt;19</title>
<path fill="none" stroke="grey" stroke-width="2" d="M560.88,-287.34C560.88,-280.75 560.88,-273.08 560.88,-265.67"/>
<polygon fill="grey" stroke="grey" stroke-width="2" points="564.38,-265.93 560.88,-255.93 557.38,-265.93 564.38,-265.93"/>
</g>
<!-- 21 -->
<g id="node22" class="node">
<title>21</title>
<path fill="none" stroke="#567bd8" stroke-width="2" d="M194.38,-180C194.38,-180 121.38,-180 121.38,-180 115.38,-180 109.38,-174 109.38,-168 109.38,-168 109.38,-156 109.38,-156 109.38,-150 115.38,-144 121.38,-144 121.38,-144 194.38,-144 194.38,-144 200.38,-144 206.38,-150 206.38,-156 206.38,-156 206.38,-168 206.38,-168 206.38,-174 200.38,-180 194.38,-180"/>
<text xml:space="preserve" text-anchor="middle" x="157.88" y="-158.12" font-family="sans" font-size="10.00">validation_external</text>
</g>
<!-- 4&#45;&gt;21 -->
<g id="edge55" class="edge">
<title>4&#45;&gt;21</title>
<path fill="none" stroke="grey" stroke-width="2" d="M482.14,-301.27C391.69,-295.61 250.16,-282.13 206.88,-252 186.81,-238.03 174.1,-213.09 166.67,-193.16"/>
<polygon fill="grey" stroke="grey" stroke-width="2" points="170.03,-192.16 163.5,-183.82 163.4,-194.41 170.03,-192.16"/>
</g>
<!-- 4&#45;&gt;23 -->
<g id="edge58" class="edge">
<title>4&#45;&gt;23</title>
<path fill="none" stroke="grey" stroke-width="2" d="M482.17,-288.47C435.93,-278.49 376.42,-265.19 323.88,-252 323.61,-251.93 323.34,-251.87 323.07,-251.8"/>
<polygon fill="grey" stroke="grey" stroke-width="2" points="324.25,-248.49 313.69,-249.36 322.49,-255.26 324.25,-248.49"/>
</g>
<!-- 5 -->
<g id="node6" class="node">
<title>5</title>
<path fill="none" stroke="#d86656" stroke-width="2" d="M850.12,-396C850.12,-396 733.62,-396 733.62,-396 727.62,-396 721.62,-390 721.62,-384 721.62,-384 721.62,-372 721.62,-372 721.62,-366 727.62,-360 733.62,-360 733.62,-360 850.12,-360 850.12,-360 856.12,-360 862.12,-366 862.12,-372 862.12,-372 862.12,-384 862.12,-384 862.12,-390 856.12,-396 850.12,-396"/>
<text xml:space="preserve" text-anchor="middle" x="791.88" y="-374.12" font-family="sans" font-size="10.00">aggregate_clustering_results</text>
</g>
<!-- 5&#45;&gt;4 -->
<g id="edge24" class="edge">
<title>5&#45;&gt;4</title>
<path fill="none" stroke="grey" stroke-width="2" d="M732.69,-359.06C701.99,-349.76 664.26,-338.33 631.99,-328.55"/>
<polygon fill="grey" stroke="grey" stroke-width="2" points="633.39,-325.32 622.81,-325.77 631.36,-332.02 633.39,-325.32"/>
</g>
<!-- 6 -->
<g id="node7" class="node">
<title>6</title>
<path fill="none" stroke="#88d856" stroke-width="2" d="M1002.88,-468C1002.88,-468 950.88,-468 950.88,-468 944.88,-468 938.88,-462 938.88,-456 938.88,-456 938.88,-444 938.88,-444 938.88,-438 944.88,-432 950.88,-432 950.88,-432 1002.88,-432 1002.88,-432 1008.88,-432 1014.88,-438 1014.88,-444 1014.88,-444 1014.88,-456 1014.88,-456 1014.88,-462 1008.88,-468 1002.88,-468"/>
<text xml:space="preserve" text-anchor="middle" x="976.88" y="-446.12" font-family="sans" font-size="10.00">leiden_cluster</text>
</g>
<!-- 6&#45;&gt;5 -->
<g id="edge25" class="edge">
<title>6&#45;&gt;5</title>
<path fill="none" stroke="grey" stroke-width="2" d="M938.09,-434.33C912.88,-424.78 879.51,-412.16 851.02,-401.38"/>
<polygon fill="grey" stroke="grey" stroke-width="2" points="852.56,-398.22 841.97,-397.96 850.09,-404.77 852.56,-398.22"/>
</g>
<!-- 7 -->
<g id="node8" class="node">
<title>7</title>
<path fill="none" stroke="#5692d8" stroke-width="2" d="M1131.5,-540C1131.5,-540 1086.25,-540 1086.25,-540 1080.25,-540 1074.25,-534 1074.25,-528 1074.25,-528 1074.25,-516 1074.25,-516 1074.25,-510 1080.25,-504 1086.25,-504 1086.25,-504 1131.5,-504 1131.5,-504 1137.5,-504 1143.5,-510 1143.5,-516 1143.5,-516 1143.5,-528 1143.5,-528 1143.5,-534 1137.5,-540 1131.5,-540"/>
<text xml:space="preserve" text-anchor="middle" x="1108.88" y="-518.12" font-family="sans" font-size="10.00">umap_graph</text>
</g>
<!-- 7&#45;&gt;0 -->
<g id="edge10" class="edge">
<title>7&#45;&gt;0</title>
<path fill="none" stroke="grey" stroke-width="2" d="M1144.26,-516.64C1244.62,-503.29 1523.88,-458.96 1523.88,-379 1523.88,-379 1523.88,-379 1523.88,-161 1523.88,-85.87 1268.59,-39.92 1167.45,-24.66"/>
<polygon fill="grey" stroke="grey" stroke-width="2" points="1168.19,-21.24 1157.79,-23.24 1167.17,-28.16 1168.19,-21.24"/>
</g>
<!-- 7&#45;&gt;6 -->
<g id="edge26" class="edge">
<title>7&#45;&gt;6</title>
<path fill="none" stroke="grey" stroke-width="2" d="M1075.22,-503.15C1059.01,-494.56 1039.34,-484.12 1021.86,-474.85"/>
<polygon fill="grey" stroke="grey" stroke-width="2" points="1023.61,-471.82 1013.14,-470.23 1020.33,-478.01 1023.61,-471.82"/>
</g>
<!-- 12 -->
<g id="node13" class="node">
<title>12</title>
<path fill="none" stroke="#56a2d8" stroke-width="2" d="M1072.12,-324C1072.12,-324 1021.62,-324 1021.62,-324 1015.62,-324 1009.62,-318 1009.62,-312 1009.62,-312 1009.62,-300 1009.62,-300 1009.62,-294 1015.62,-288 1021.62,-288 1021.62,-288 1072.12,-288 1072.12,-288 1078.12,-288 1084.12,-294 1084.12,-300 1084.12,-300 1084.12,-312 1084.12,-312 1084.12,-318 1078.12,-324 1072.12,-324"/>
<text xml:space="preserve" text-anchor="middle" x="1046.88" y="-302.12" font-family="sans" font-size="10.00">umap_embed</text>
</g>
<!-- 7&#45;&gt;12 -->
<g id="edge43" class="edge">
<title>7&#45;&gt;12</title>
<path fill="none" stroke="grey" stroke-width="2" d="M1103.7,-503.12C1093.1,-466.54 1068.83,-382.77 1055.7,-337.45"/>
<polygon fill="grey" stroke="grey" stroke-width="2" points="1059.07,-336.52 1052.93,-327.88 1052.35,-338.46 1059.07,-336.52"/>
</g>
<!-- 13 -->
<g id="node14" class="node">
<title>13</title>
<path fill="none" stroke="#bed856" stroke-width="2" d="M1180,-324C1180,-324 1113.75,-324 1113.75,-324 1107.75,-324 1101.75,-318 1101.75,-312 1101.75,-312 1101.75,-300 1101.75,-300 1101.75,-294 1107.75,-288 1113.75,-288 1113.75,-288 1180,-288 1180,-288 1186,-288 1192,-294 1192,-300 1192,-300 1192,-312 1192,-312 1192,-318 1186,-324 1180,-324"/>
<text xml:space="preserve" text-anchor="middle" x="1146.88" y="-302.12" font-family="sans" font-size="10.00">densmap_embed</text>
</g>
<!-- 7&#45;&gt;13 -->
<g id="edge44" class="edge">
<title>7&#45;&gt;13</title>
<path fill="none" stroke="grey" stroke-width="2" d="M1112.05,-503.12C1118.53,-466.62 1133.36,-383.13 1141.42,-337.74"/>
<polygon fill="grey" stroke="grey" stroke-width="2" points="1144.85,-338.42 1143.15,-327.96 1137.96,-337.19 1144.85,-338.42"/>
</g>
<!-- 8&#45;&gt;0 -->
<g id="edge6" class="edge">
<title>8&#45;&gt;0</title>
<path fill="none" stroke="grey" stroke-width="2" d="M1099.38,-215.12C1104.5,-178.62 1116.2,-95.13 1122.57,-49.74"/>
<polygon fill="grey" stroke="grey" stroke-width="2" points="1126.01,-50.36 1123.93,-39.97 1119.08,-49.39 1126.01,-50.36"/>
</g>
<!-- 9&#45;&gt;0 -->
<g id="edge11" class="edge">
<title>9&#45;&gt;0</title>
<path fill="none" stroke="grey" stroke-width="2" d="M982.07,-215.12C1009.49,-177.99 1072.8,-92.24 1105.88,-47.43"/>
<polygon fill="grey" stroke="grey" stroke-width="2" points="1108.68,-49.54 1111.8,-39.41 1103.05,-45.38 1108.68,-49.54"/>
</g>
<!-- 10&#45;&gt;0 -->
<g id="edge15" class="edge">
<title>10&#45;&gt;0</title>
<path fill="none" stroke="grey" stroke-width="2" d="M458.79,-215.01C531.3,-182.15 692.62,-112.11 834.88,-72 923.02,-47.15 1029.53,-31.26 1086.41,-23.86"/>
<polygon fill="grey" stroke="grey" stroke-width="2" points="1086.62,-27.36 1096.1,-22.63 1085.74,-20.42 1086.62,-27.36"/>
</g>
<!-- 11&#45;&gt;0 -->
<g id="edge9" class="edge">
<title>11&#45;&gt;0</title>
<path fill="none" stroke="grey" stroke-width="2" d="M860.18,-215.12C911.75,-177.2 1032.26,-88.58 1092.01,-44.64"/>
<polygon fill="grey" stroke="grey" stroke-width="2" points="1094.01,-47.51 1099.99,-38.77 1089.86,-41.88 1094.01,-47.51"/>
</g>
<!-- 12&#45;&gt;0 -->
<g id="edge4" class="edge">
<title>12&#45;&gt;0</title>
<path fill="none" stroke="grey" stroke-width="2" d="M1084.84,-289.41C1115.58,-276.41 1154.49,-258.93 1158.88,-252 1199.27,-188.19 1164.59,-94.95 1142.23,-48.12"/>
<polygon fill="grey" stroke="grey" stroke-width="2" points="1145.51,-46.86 1137.94,-39.45 1139.23,-49.96 1145.51,-46.86"/>
</g>
<!-- 12&#45;&gt;2 -->
<g id="edge19" class="edge">
<title>12&#45;&gt;2</title>
<path fill="none" stroke="grey" stroke-width="2" d="M1008.94,-298.6C957.67,-289.78 863.17,-272.87 773.2,-252.9"/>
<polygon fill="grey" stroke="grey" stroke-width="2" points="774.02,-249.5 763.49,-250.72 772.49,-256.33 774.02,-249.5"/>
</g>
<!-- 12&#45;&gt;8 -->
<g id="edge28" class="edge">
<title>12&#45;&gt;8</title>
<path fill="none" stroke="grey" stroke-width="2" d="M1059.49,-287.34C1064.66,-280.1 1070.78,-271.53 1076.55,-263.45"/>
<polygon fill="grey" stroke="grey" stroke-width="2" points="1079.36,-265.54 1082.33,-255.37 1073.67,-261.47 1079.36,-265.54"/>
</g>
<!-- 12&#45;&gt;9 -->
<g id="edge31" class="edge">
<title>12&#45;&gt;9</title>
<path fill="none" stroke="grey" stroke-width="2" d="M1027.19,-287.34C1018.48,-279.52 1008.06,-270.16 998.44,-261.53"/>
<polygon fill="grey" stroke="grey" stroke-width="2" points="1000.86,-259 991.08,-254.92 996.18,-264.21 1000.86,-259"/>
</g>
<!-- 12&#45;&gt;11 -->
<g id="edge38" class="edge">
<title>12&#45;&gt;11</title>
<path fill="none" stroke="grey" stroke-width="2" d="M1008.66,-292.32C979.03,-282.49 937.23,-268.62 902.16,-256.99"/>
<polygon fill="grey" stroke="grey" stroke-width="2" points="903.54,-253.76 892.95,-253.93 901.33,-260.4 903.54,-253.76"/>
</g>
<!-- 14 -->
<g id="node15" class="node">
<title>14</title>
<path fill="none" stroke="#56d8d0" stroke-width="2" d="M1446.25,-252C1446.25,-252 1351.5,-252 1351.5,-252 1345.5,-252 1339.5,-246 1339.5,-240 1339.5,-240 1339.5,-228 1339.5,-228 1339.5,-222 1345.5,-216 1351.5,-216 1351.5,-216 1446.25,-216 1446.25,-216 1452.25,-216 1458.25,-222 1458.25,-228 1458.25,-228 1458.25,-240 1458.25,-240 1458.25,-246 1452.25,-252 1446.25,-252"/>
<text xml:space="preserve" text-anchor="middle" x="1398.88" y="-230.12" font-family="sans" font-size="10.00">plot_umap_connectivity</text>
</g>
<!-- 12&#45;&gt;14 -->
<g id="edge45" class="edge">
<title>12&#45;&gt;14</title>
<path fill="none" stroke="grey" stroke-width="2" d="M1085.09,-290.21C1087.71,-289.41 1090.32,-288.66 1092.88,-288 1192.53,-262.34 1223.62,-272.16 1326,-252.84"/>
<polygon fill="grey" stroke="grey" stroke-width="2" points="1326.39,-256.33 1335.54,-250.99 1325.05,-249.46 1326.39,-256.33"/>
</g>
<!-- 15 -->
<g id="node16" class="node">
<title>15</title>
<path fill="none" stroke="#56c9d8" stroke-width="2" d="M1309.75,-252C1309.75,-252 1218,-252 1218,-252 1212,-252 1206,-246 1206,-240 1206,-240 1206,-228 1206,-228 1206,-222 1212,-216 1218,-216 1218,-216 1309.75,-216 1309.75,-216 1315.75,-216 1321.75,-222 1321.75,-228 1321.75,-228 1321.75,-240 1321.75,-240 1321.75,-246 1315.75,-252 1309.75,-252"/>
<text xml:space="preserve" text-anchor="middle" x="1263.88" y="-230.12" font-family="sans" font-size="10.00">plot_umap_diagnostics</text>
</g>
<!-- 12&#45;&gt;15 -->
<g id="edge47" class="edge">
<title>12&#45;&gt;15</title>
<path fill="none" stroke="grey" stroke-width="2" d="M1084.97,-290.74C1087.64,-289.8 1090.3,-288.88 1092.88,-288 1125.47,-276.94 1161.86,-265.53 1192.67,-256.14"/>
<polygon fill="grey" stroke="grey" stroke-width="2" points="1193.61,-259.51 1202.16,-253.26 1191.58,-252.81 1193.61,-259.51"/>
</g>
<!-- 13&#45;&gt;0 -->
<g id="edge12" class="edge">
<title>13&#45;&gt;0</title>
<path fill="none" stroke="grey" stroke-width="2" d="M1192.82,-304.38C1272.77,-302.23 1432.28,-292.8 1466.88,-252 1533.5,-173.43 1508.49,-176.16 1333.88,-72 1281.59,-40.81 1211.26,-27.83 1167.51,-22.53"/>
<polygon fill="grey" stroke="grey" stroke-width="2" points="1167.91,-19.05 1157.58,-21.42 1167.13,-26.01 1167.91,-19.05"/>
</g>
<!-- 13&#45;&gt;2 -->
<g id="edge21" class="edge">
<title>13&#45;&gt;2</title>
<path fill="none" stroke="grey" stroke-width="2" d="M1100.78,-289.84C1098.12,-289.17 1095.47,-288.55 1092.88,-288 955.12,-258.95 913.67,-277.29 773.36,-252.66"/>
<polygon fill="grey" stroke="grey" stroke-width="2" points="774.28,-249.27 763.82,-250.94 773.04,-256.16 774.28,-249.27"/>
</g>
<!-- 13&#45;&gt;8 -->
<g id="edge30" class="edge">
<title>13&#45;&gt;8</title>
<path fill="none" stroke="grey" stroke-width="2" d="M1134.26,-287.34C1129.09,-280.1 1122.97,-271.53 1117.2,-263.45"/>
<polygon fill="grey" stroke="grey" stroke-width="2" points="1120.08,-261.47 1111.42,-255.37 1114.39,-265.54 1120.08,-261.47"/>
</g>
<!-- 13&#45;&gt;9 -->
<g id="edge34" class="edge">
<title>13&#45;&gt;9</title>
<path fill="none" stroke="grey" stroke-width="2" d="M1101.5,-287.15C1078.68,-278.18 1050.77,-267.21 1026.45,-257.64"/>
<polygon fill="grey" stroke="grey" stroke-width="2" points="1027.88,-254.44 1017.3,-254.04 1025.32,-260.96 1027.88,-254.44"/>
</g>
<!-- 13&#45;&gt;11 -->
<g id="edge40" class="edge">
<title>13&#45;&gt;11</title>
<path fill="none" stroke="grey" stroke-width="2" d="M1101.02,-290.16C1098.28,-289.4 1095.54,-288.67 1092.88,-288 1013.43,-268.04 989.05,-270.3 907.48,-252.93"/>
<polygon fill="grey" stroke="grey" stroke-width="2" points="908.49,-249.56 897.97,-250.86 907,-256.4 908.49,-249.56"/>
</g>
<!-- 13&#45;&gt;14 -->
<g id="edge46" class="edge">
<title>13&#45;&gt;14</title>
<path fill="none" stroke="grey" stroke-width="2" d="M1192.8,-292.24C1230.01,-281.91 1283.14,-267.15 1326.13,-255.21"/>
<polygon fill="grey" stroke="grey" stroke-width="2" points="1326.92,-258.62 1335.62,-252.57 1325.05,-251.88 1326.92,-258.62"/>
</g>
<!-- 13&#45;&gt;15 -->
<g id="edge48" class="edge">
<title>13&#45;&gt;15</title>
<path fill="none" stroke="grey" stroke-width="2" d="M1176.7,-287.15C1190.87,-278.68 1208.01,-268.42 1223.33,-259.25"/>
<polygon fill="grey" stroke="grey" stroke-width="2" points="1224.72,-262.5 1231.51,-254.37 1221.13,-256.5 1224.72,-262.5"/>
</g>
<!-- 14&#45;&gt;0 -->
<g id="edge5" class="edge">
<title>14&#45;&gt;0</title>
<path fill="none" stroke="grey" stroke-width="2" d="M1393.23,-215.05C1381.84,-181.77 1352.94,-110.42 1303.88,-72 1264,-40.78 1205.99,-27.91 1167.37,-22.63"/>
<polygon fill="grey" stroke="grey" stroke-width="2" points="1167.94,-19.17 1157.59,-21.43 1167.09,-26.12 1167.94,-19.17"/>
</g>
<!-- 15&#45;&gt;0 -->
<g id="edge2" class="edge">
<title>15&#45;&gt;0</title>
<path fill="none" stroke="grey" stroke-width="2" d="M1275.19,-215.13C1280.81,-205.2 1287,-192.38 1289.88,-180 1300.76,-133.08 1311.23,-109.4 1280.88,-72 1253.38,-38.13 1203.09,-25.83 1167.47,-21.41"/>
<polygon fill="grey" stroke="grey" stroke-width="2" points="1167.93,-17.94 1157.62,-20.39 1167.2,-24.9 1167.93,-17.94"/>
</g>
<!-- 16 -->
<g id="node17" class="node">
<title>16</title>
<path fill="none" stroke="#56d89a" stroke-width="2" d="M1260.12,-108C1260.12,-108 1209.62,-108 1209.62,-108 1203.62,-108 1197.62,-102 1197.62,-96 1197.62,-96 1197.62,-84 1197.62,-84 1197.62,-78 1203.62,-72 1209.62,-72 1209.62,-72 1260.12,-72 1260.12,-72 1266.12,-72 1272.12,-78 1272.12,-84 1272.12,-84 1272.12,-96 1272.12,-96 1272.12,-102 1266.12,-108 1260.12,-108"/>
<text xml:space="preserve" text-anchor="middle" x="1234.88" y="-86.12" font-family="sans" font-size="10.00">plot_heatmap</text>
</g>
<!-- 16&#45;&gt;0 -->
<g id="edge7" class="edge">
<title>16&#45;&gt;0</title>
<path fill="none" stroke="grey" stroke-width="2" d="M1207.34,-71.15C1194.52,-62.84 1179.06,-52.82 1165.12,-43.79"/>
<polygon fill="grey" stroke="grey" stroke-width="2" points="1167.19,-40.96 1156.9,-38.46 1163.39,-46.83 1167.19,-40.96"/>
</g>
<!-- 17 -->
<g id="node18" class="node">
<title>17</title>
<path fill="none" stroke="#afd856" stroke-width="2" d="M1268.38,-180C1268.38,-180 1207.38,-180 1207.38,-180 1201.38,-180 1195.38,-174 1195.38,-168 1195.38,-168 1195.38,-156 1195.38,-156 1195.38,-150 1201.38,-144 1207.38,-144 1207.38,-144 1268.38,-144 1268.38,-144 1274.38,-144 1280.38,-150 1280.38,-156 1280.38,-156 1280.38,-168 1280.38,-168 1280.38,-174 1274.38,-180 1268.38,-180"/>
<text xml:space="preserve" text-anchor="middle" x="1237.88" y="-158.12" font-family="sans" font-size="10.00">distance_matrix</text>
</g>
<!-- 17&#45;&gt;16 -->
<g id="edge49" class="edge">
<title>17&#45;&gt;16</title>
<path fill="none" stroke="grey" stroke-width="2" d="M1237.12,-143.34C1236.84,-136.75 1236.51,-129.08 1236.19,-121.67"/>
<polygon fill="grey" stroke="grey" stroke-width="2" points="1239.7,-121.77 1235.77,-111.93 1232.7,-122.07 1239.7,-121.77"/>
</g>
<!-- 18&#45;&gt;0 -->
<g id="edge8" class="edge">
<title>18&#45;&gt;0</title>
<path fill="none" stroke="grey" stroke-width="2" d="M75.67,-143.16C112.86,-121.92 179.12,-87.37 240.88,-72 404.35,-31.31 934.91,-21.46 1086.24,-19.46"/>
<polygon fill="grey" stroke="grey" stroke-width="2" points="1085.9,-22.96 1095.86,-19.33 1085.81,-15.96 1085.9,-22.96"/>
</g>
<!-- 19&#45;&gt;0 -->
<g id="edge1" class="edge">
<title>19&#45;&gt;0</title>
<path fill="none" stroke="grey" stroke-width="2" d="M596.49,-215.1C661.08,-183.16 802.39,-115.58 926.88,-72 981.06,-53.03 1045.54,-37.09 1086.34,-27.79"/>
<polygon fill="grey" stroke="grey" stroke-width="2" points="1087.02,-31.22 1096.01,-25.62 1085.49,-24.39 1087.02,-31.22"/>
</g>
<!-- 20 -->
<g id="node21" class="node">
<title>20</title>
<path fill="none" stroke="#56d8a9" stroke-width="2" d="M305.75,-108C305.75,-108 262,-108 262,-108 256,-108 250,-102 250,-96 250,-96 250,-84 250,-84 250,-78 256,-72 262,-72 262,-72 305.75,-72 305.75,-72 311.75,-72 317.75,-78 317.75,-84 317.75,-84 317.75,-96 317.75,-96 317.75,-102 311.75,-108 305.75,-108"/>
<text xml:space="preserve" text-anchor="middle" x="283.88" y="-86.12" font-family="sans" font-size="10.00">plot_indices</text>
</g>
<!-- 20&#45;&gt;0 -->
<g id="edge14" class="edge">
<title>20&#45;&gt;0</title>
<path fill="none" stroke="grey" stroke-width="2" d="M318.67,-79.82C330.97,-76.89 344.97,-73.92 357.88,-72 634.22,-30.99 971.25,-21.62 1086.22,-19.56"/>
<polygon fill="grey" stroke="grey" stroke-width="2" points="1086.15,-23.06 1096.09,-19.39 1086.03,-16.06 1086.15,-23.06"/>
</g>
<!-- 21&#45;&gt;20 -->
<g id="edge53" class="edge">
<title>21&#45;&gt;20</title>
<path fill="none" stroke="grey" stroke-width="2" d="M190,-143.15C205.4,-134.6 224.07,-124.22 240.7,-114.99"/>
<polygon fill="grey" stroke="grey" stroke-width="2" points="242.12,-118.2 249.17,-110.28 238.73,-112.08 242.12,-118.2"/>
</g>
<!-- 22 -->
<g id="node23" class="node">
<title>22</title>
<path fill="none" stroke="#d87d56" stroke-width="2" d="M331.62,-180C331.62,-180 236.12,-180 236.12,-180 230.12,-180 224.12,-174 224.12,-168 224.12,-168 224.12,-156 224.12,-156 224.12,-150 230.12,-144 236.12,-144 236.12,-144 331.62,-144 331.62,-144 337.62,-144 343.62,-150 343.62,-156 343.62,-156 343.62,-168 343.62,-168 343.62,-174 337.62,-180 331.62,-180"/>
<text xml:space="preserve" text-anchor="middle" x="283.88" y="-158.12" font-family="sans" font-size="10.00">aggregate_rank_internal</text>
</g>
<!-- 22&#45;&gt;20 -->
<g id="edge54" class="edge">
<title>22&#45;&gt;20</title>
<path fill="none" stroke="grey" stroke-width="2" d="M283.88,-143.34C283.88,-136.75 283.88,-129.08 283.88,-121.67"/>
<polygon fill="grey" stroke="grey" stroke-width="2" points="287.38,-121.93 283.88,-111.93 280.38,-121.93 287.38,-121.93"/>
</g>
<!-- 23&#45;&gt;22 -->
<g id="edge56" class="edge">
<title>23&#45;&gt;22</title>
<path fill="none" stroke="grey" stroke-width="2" d="M268.17,-215.34C270.2,-208.59 272.57,-200.69 274.84,-193.11"/>
<polygon fill="grey" stroke="grey" stroke-width="2" points="278.11,-194.39 277.63,-183.8 271.41,-192.37 278.11,-194.39"/>
</g>
<!-- 24 -->
<g id="node25" class="node">
<title>24</title>
<path fill="none" stroke="#97d856" stroke-width="2" d="M1603.88,-108C1603.88,-108 1563.88,-108 1563.88,-108 1557.88,-108 1551.88,-102 1551.88,-96 1551.88,-96 1551.88,-84 1551.88,-84 1551.88,-78 1557.88,-72 1563.88,-72 1563.88,-72 1603.88,-72 1603.88,-72 1609.88,-72 1615.88,-78 1615.88,-84 1615.88,-84 1615.88,-96 1615.88,-96 1615.88,-102 1609.88,-108 1603.88,-108"/>
<text xml:space="preserve" text-anchor="middle" x="1583.88" y="-86.12" font-family="sans" font-size="10.00">env_export</text>
</g>
<!-- 24&#45;&gt;0 -->
<g id="edge18" class="edge">
<title>24&#45;&gt;0</title>
<path fill="none" stroke="grey" stroke-width="2" d="M1550.99,-75.83C1546.62,-74.39 1542.17,-73.06 1537.88,-72 1404.69,-39.25 1241.95,-25.89 1167.53,-21.2"/>
<polygon fill="grey" stroke="grey" stroke-width="2" points="1167.9,-17.71 1157.71,-20.6 1167.48,-24.7 1167.9,-17.71"/>
</g>
<!-- 25 -->
<g id="node26" class="node">
<title>25</title>
<path fill="none" stroke="#d6d856" stroke-width="2" d="M1696.12,-108C1696.12,-108 1645.62,-108 1645.62,-108 1639.62,-108 1633.62,-102 1633.62,-96 1633.62,-96 1633.62,-84 1633.62,-84 1633.62,-78 1639.62,-72 1645.62,-72 1645.62,-72 1696.12,-72 1696.12,-72 1702.12,-72 1708.12,-78 1708.12,-84 1708.12,-84 1708.12,-96 1708.12,-96 1708.12,-102 1702.12,-108 1696.12,-108"/>
<text xml:space="preserve" text-anchor="middle" x="1670.88" y="-86.12" font-family="sans" font-size="10.00">config_export</text>
</g>
<!-- 25&#45;&gt;0 -->
<g id="edge17" class="edge">
<title>25&#45;&gt;0</title>
<path fill="none" stroke="grey" stroke-width="2" d="M1632.69,-74.08C1630.07,-73.31 1627.44,-72.6 1624.88,-72 1458.3,-33 1253.6,-22.64 1167.78,-19.93"/>
<polygon fill="grey" stroke="grey" stroke-width="2" points="1167.93,-16.44 1157.84,-19.65 1167.73,-23.44 1167.93,-16.44"/>
</g>
<!-- 26 -->
<g id="node27" class="node">
<title>26</title>
<path fill="none" stroke="#d8a456" stroke-width="2" d="M1786,-108C1786,-108 1737.75,-108 1737.75,-108 1731.75,-108 1725.75,-102 1725.75,-96 1725.75,-96 1725.75,-84 1725.75,-84 1725.75,-78 1731.75,-72 1737.75,-72 1737.75,-72 1786,-72 1786,-72 1792,-72 1798,-78 1798,-84 1798,-84 1798,-96 1798,-96 1798,-102 1792,-108 1786,-108"/>
<text xml:space="preserve" text-anchor="middle" x="1761.88" y="-86.12" font-family="sans" font-size="10.00">annot_export</text>
</g>
<!-- 26&#45;&gt;0 -->
<g id="edge13" class="edge">
<title>26&#45;&gt;0</title>
<path fill="none" stroke="grey" stroke-width="2" d="M1724.79,-74.1C1722.14,-73.31 1719.48,-72.6 1716.88,-72 1514.36,-25.56 1264.03,-19.41 1167.48,-18.88"/>
<polygon fill="grey" stroke="grey" stroke-width="2" points="1167.68,-15.38 1157.67,-18.85 1167.65,-22.38 1167.68,-15.38"/>
</g>
</g>
</svg>
