<?xml version="1.0" encoding="UTF-8" standalone="no"?>
<!DOCTYPE svg PUBLIC "-//W3C//DTD SVG 1.1//EN"
 "http://www.w3.org/Graphics/SVG/1.1/DTD/svg11.dtd">
<!-- Generated by graphviz version 2.47.2 (20210527.1257)
 -->
<!-- Title: snakemake_dag Pages: 1 -->
<svg width="1281pt" height="260pt"
 viewBox="0.00 0.00 1281.49 260.00" xmlns="http://www.w3.org/2000/svg" xmlns:xlink="http://www.w3.org/1999/xlink">
<g id="graph0" class="graph" transform="scale(1 1) rotate(0) translate(4 256)">
<title>snakemake_dag</title>
<polygon fill="white" stroke="transparent" points="-4,4 -4,-256 1277.49,-256 1277.49,4 -4,4"/>
<!-- 0 -->
<g id="node1" class="node">
<title>0</title>
<path fill="none" stroke="#56d8d0" stroke-width="2" d="M647.99,-36C647.99,-36 617.99,-36 617.99,-36 611.99,-36 605.99,-30 605.99,-24 605.99,-24 605.99,-12 605.99,-12 605.99,-6 611.99,0 617.99,0 617.99,0 647.99,0 647.99,0 653.99,0 659.99,-6 659.99,-12 659.99,-12 659.99,-24 659.99,-24 659.99,-30 653.99,-36 647.99,-36"/>
<text text-anchor="middle" x="632.99" y="-15.5" font-family="sans" font-size="10.00">all</text>
</g>
<!-- 1 -->
<g id="node2" class="node">
<title>1</title>
<path fill="none" stroke="#56d86b" stroke-width="2" d="M264.99,-180C264.99,-180 234.99,-180 234.99,-180 228.99,-180 222.99,-174 222.99,-168 222.99,-168 222.99,-156 222.99,-156 222.99,-150 228.99,-144 234.99,-144 234.99,-144 264.99,-144 264.99,-144 270.99,-144 276.99,-150 276.99,-156 276.99,-156 276.99,-168 276.99,-168 276.99,-174 270.99,-180 264.99,-180"/>
<text text-anchor="middle" x="249.99" y="-159.5" font-family="sans" font-size="10.00">pca</text>
</g>
<!-- 1&#45;&gt;0 -->
<g id="edge8" class="edge">
<title>1&#45;&gt;0</title>
<path fill="none" stroke="grey" stroke-width="2" d="M222.66,-159.06C154.02,-153.24 -16.29,-132.43 38.99,-72 76.59,-30.89 470.82,-21.44 595.44,-19.48"/>
<polygon fill="grey" stroke="grey" stroke-width="2" points="595.69,-22.97 605.64,-19.32 595.59,-15.97 595.69,-22.97"/>
</g>
<!-- 2 -->
<g id="node3" class="node">
<title>2</title>
<path fill="none" stroke="#d87556" stroke-width="2" d="M301.99,-108C301.99,-108 197.99,-108 197.99,-108 191.99,-108 185.99,-102 185.99,-96 185.99,-96 185.99,-84 185.99,-84 185.99,-78 191.99,-72 197.99,-72 197.99,-72 301.99,-72 301.99,-72 307.99,-72 313.99,-78 313.99,-84 313.99,-84 313.99,-96 313.99,-96 313.99,-102 307.99,-108 301.99,-108"/>
<text text-anchor="middle" x="249.99" y="-87.5" font-family="sans" font-size="10.00">plot_dimred_metadata</text>
</g>
<!-- 1&#45;&gt;2 -->
<g id="edge14" class="edge">
<title>1&#45;&gt;2</title>
<path fill="none" stroke="grey" stroke-width="2" d="M249.99,-143.7C249.99,-135.98 249.99,-126.71 249.99,-118.11"/>
<polygon fill="grey" stroke="grey" stroke-width="2" points="253.49,-118.1 249.99,-108.1 246.49,-118.1 253.49,-118.1"/>
</g>
<!-- 4 -->
<g id="node5" class="node">
<title>4</title>
<path fill="none" stroke="#afd856" stroke-width="2" d="M441.49,-108C441.49,-108 344.49,-108 344.49,-108 338.49,-108 332.49,-102 332.49,-96 332.49,-96 332.49,-84 332.49,-84 332.49,-78 338.49,-72 344.49,-72 344.49,-72 441.49,-72 441.49,-72 447.49,-72 453.49,-78 453.49,-84 453.49,-84 453.49,-96 453.49,-96 453.49,-102 447.49,-108 441.49,-108"/>
<text text-anchor="middle" x="392.99" y="-87.5" font-family="sans" font-size="10.00">plot_dimred_features</text>
</g>
<!-- 1&#45;&gt;4 -->
<g id="edge18" class="edge">
<title>1&#45;&gt;4</title>
<path fill="none" stroke="grey" stroke-width="2" d="M277.22,-147.67C297.54,-137.72 325.72,-123.93 349.18,-112.44"/>
<polygon fill="grey" stroke="grey" stroke-width="2" points="350.81,-115.54 358.25,-108 347.73,-109.26 350.81,-115.54"/>
</g>
<!-- 5 -->
<g id="node6" class="node">
<title>5</title>
<path fill="none" stroke="#88d856" stroke-width="2" d="M155.49,-108C155.49,-108 60.49,-108 60.49,-108 54.49,-108 48.49,-102 48.49,-96 48.49,-96 48.49,-84 48.49,-84 48.49,-78 54.49,-72 60.49,-72 60.49,-72 155.49,-72 155.49,-72 161.49,-72 167.49,-78 167.49,-84 167.49,-84 167.49,-96 167.49,-96 167.49,-102 161.49,-108 155.49,-108"/>
<text text-anchor="middle" x="107.99" y="-87.5" font-family="sans" font-size="10.00">plot_pca_diagnostics</text>
</g>
<!-- 1&#45;&gt;5 -->
<g id="edge22" class="edge">
<title>1&#45;&gt;5</title>
<path fill="none" stroke="grey" stroke-width="2" d="M222.94,-147.67C202.77,-137.72 174.79,-123.93 151.48,-112.44"/>
<polygon fill="grey" stroke="grey" stroke-width="2" points="152.99,-109.28 142.48,-108 149.9,-115.56 152.99,-109.28"/>
</g>
<!-- 6 -->
<g id="node7" class="node">
<title>6</title>
<path fill="none" stroke="#68d856" stroke-width="2" d="M592.49,-108C592.49,-108 483.49,-108 483.49,-108 477.49,-108 471.49,-102 471.49,-96 471.49,-96 471.49,-84 471.49,-84 471.49,-78 477.49,-72 483.49,-72 483.49,-72 592.49,-72 592.49,-72 598.49,-72 604.49,-78 604.49,-84 604.49,-84 604.49,-96 604.49,-96 604.49,-102 598.49,-108 592.49,-108"/>
<text text-anchor="middle" x="537.99" y="-87.5" font-family="sans" font-size="10.00">plot_dimred_interactive</text>
</g>
<!-- 1&#45;&gt;6 -->
<g id="edge24" class="edge">
<title>1&#45;&gt;6</title>
<path fill="none" stroke="grey" stroke-width="2" d="M277.22,-152.83C287.18,-149.92 298.56,-146.71 308.99,-144 337.43,-136.62 406.36,-120.76 461.21,-108.31"/>
<polygon fill="grey" stroke="grey" stroke-width="2" points="462.3,-111.65 471.28,-106.03 460.75,-104.82 462.3,-111.65"/>
</g>
<!-- 2&#45;&gt;0 -->
<g id="edge2" class="edge">
<title>2&#45;&gt;0</title>
<path fill="none" stroke="grey" stroke-width="2" d="M314.03,-73.86C317.06,-73.21 320.05,-72.59 322.99,-72 420.99,-52.23 537.39,-33.63 595.73,-24.64"/>
<polygon fill="grey" stroke="grey" stroke-width="2" points="596.58,-28.05 605.93,-23.07 595.52,-21.13 596.58,-28.05"/>
</g>
<!-- 3 -->
<g id="node4" class="node">
<title>3</title>
<path fill="none" stroke="#d89c56" stroke-width="2" d="M409.49,-180C409.49,-180 330.49,-180 330.49,-180 324.49,-180 318.49,-174 318.49,-168 318.49,-168 318.49,-156 318.49,-156 318.49,-150 324.49,-144 330.49,-144 330.49,-144 409.49,-144 409.49,-144 415.49,-144 421.49,-150 421.49,-156 421.49,-156 421.49,-168 421.49,-168 421.49,-174 415.49,-180 409.49,-180"/>
<text text-anchor="middle" x="369.99" y="-159.5" font-family="sans" font-size="10.00">prep_feature_plot</text>
</g>
<!-- 3&#45;&gt;2 -->
<g id="edge15" class="edge">
<title>3&#45;&gt;2</title>
<path fill="none" stroke="grey" stroke-width="2" d="M340.63,-143.88C324.94,-134.72 305.43,-123.34 288.53,-113.48"/>
<polygon fill="grey" stroke="grey" stroke-width="2" points="289.86,-110.21 279.45,-108.19 286.33,-116.25 289.86,-110.21"/>
</g>
<!-- 3&#45;&gt;4 -->
<g id="edge19" class="edge">
<title>3&#45;&gt;4</title>
<path fill="none" stroke="grey" stroke-width="2" d="M375.67,-143.7C378.23,-135.9 381.32,-126.51 384.17,-117.83"/>
<polygon fill="grey" stroke="grey" stroke-width="2" points="387.57,-118.7 387.37,-108.1 380.92,-116.51 387.57,-118.7"/>
</g>
<!-- 3&#45;&gt;5 -->
<g id="edge23" class="edge">
<title>3&#45;&gt;5</title>
<path fill="none" stroke="grey" stroke-width="2" d="M318.22,-147.17C278.02,-136.43 221.86,-121.42 177.7,-109.62"/>
<polygon fill="grey" stroke="grey" stroke-width="2" points="178.46,-106.21 167.89,-107.01 176.65,-112.97 178.46,-106.21"/>
</g>
<!-- 3&#45;&gt;6 -->
<g id="edge25" class="edge">
<title>3&#45;&gt;6</title>
<path fill="none" stroke="grey" stroke-width="2" d="M411.08,-143.88C434.15,-134.26 463.12,-122.19 487.56,-112.01"/>
<polygon fill="grey" stroke="grey" stroke-width="2" points="489.14,-115.15 497.02,-108.07 486.44,-108.68 489.14,-115.15"/>
</g>
<!-- 4&#45;&gt;0 -->
<g id="edge6" class="edge">
<title>4&#45;&gt;0</title>
<path fill="none" stroke="grey" stroke-width="2" d="M451.39,-71.97C496.48,-58.81 557.48,-41.02 596.04,-29.78"/>
<polygon fill="grey" stroke="grey" stroke-width="2" points="597.19,-33.09 605.81,-26.93 595.23,-26.37 597.19,-33.09"/>
</g>
<!-- 5&#45;&gt;0 -->
<g id="edge5" class="edge">
<title>5&#45;&gt;0</title>
<path fill="none" stroke="grey" stroke-width="2" d="M167.73,-73.79C170.85,-73.15 173.95,-72.55 176.99,-72 331.11,-44.17 517.3,-27.84 595.52,-21.75"/>
<polygon fill="grey" stroke="grey" stroke-width="2" points="596.12,-25.21 605.83,-20.96 595.59,-18.23 596.12,-25.21"/>
</g>
<!-- 6&#45;&gt;0 -->
<g id="edge4" class="edge">
<title>6&#45;&gt;0</title>
<path fill="none" stroke="grey" stroke-width="2" d="M561.47,-71.7C573.55,-62.8 588.44,-51.82 601.5,-42.2"/>
<polygon fill="grey" stroke="grey" stroke-width="2" points="603.8,-44.85 609.77,-36.1 599.65,-39.22 603.8,-44.85"/>
</g>
<!-- 7 -->
<g id="node8" class="node">
<title>7</title>
<path fill="none" stroke="#d85656" stroke-width="2" d="M564.49,-252C564.49,-252 511.49,-252 511.49,-252 505.49,-252 499.49,-246 499.49,-240 499.49,-240 499.49,-228 499.49,-228 499.49,-222 505.49,-216 511.49,-216 511.49,-216 564.49,-216 564.49,-216 570.49,-216 576.49,-222 576.49,-228 576.49,-228 576.49,-240 576.49,-240 576.49,-246 570.49,-252 564.49,-252"/>
<text text-anchor="middle" x="537.99" y="-231.5" font-family="sans" font-size="10.00">umap_graph</text>
</g>
<!-- 7&#45;&gt;0 -->
<g id="edge1" class="edge">
<title>7&#45;&gt;0</title>
<path fill="none" stroke="grey" stroke-width="2" d="M499.32,-233.33C358.32,-233.34 -112.83,-222.35 24.99,-72 63.6,-29.88 468.83,-21.11 595.42,-19.4"/>
<polygon fill="grey" stroke="grey" stroke-width="2" points="595.81,-22.89 605.76,-19.26 595.72,-15.89 595.81,-22.89"/>
</g>
<!-- 8 -->
<g id="node9" class="node">
<title>8</title>
<path fill="none" stroke="#569ad8" stroke-width="2" d="M677.49,-180C677.49,-180 618.49,-180 618.49,-180 612.49,-180 606.49,-174 606.49,-168 606.49,-168 606.49,-156 606.49,-156 606.49,-150 612.49,-144 618.49,-144 618.49,-144 677.49,-144 677.49,-144 683.49,-144 689.49,-150 689.49,-156 689.49,-156 689.49,-168 689.49,-168 689.49,-174 683.49,-180 677.49,-180"/>
<text text-anchor="middle" x="647.99" y="-159.5" font-family="sans" font-size="10.00">umap_embed</text>
</g>
<!-- 7&#45;&gt;8 -->
<g id="edge28" class="edge">
<title>7&#45;&gt;8</title>
<path fill="none" stroke="grey" stroke-width="2" d="M564.89,-215.88C579.14,-206.81 596.83,-195.55 612.22,-185.76"/>
<polygon fill="grey" stroke="grey" stroke-width="2" points="614.42,-188.51 620.97,-180.19 610.66,-182.61 614.42,-188.51"/>
</g>
<!-- 11 -->
<g id="node12" class="node">
<title>11</title>
<path fill="none" stroke="#567bd8" stroke-width="2" d="M576.49,-180C576.49,-180 499.49,-180 499.49,-180 493.49,-180 487.49,-174 487.49,-168 487.49,-168 487.49,-156 487.49,-156 487.49,-150 493.49,-144 499.49,-144 499.49,-144 576.49,-144 576.49,-144 582.49,-144 588.49,-150 588.49,-156 588.49,-156 588.49,-168 588.49,-168 588.49,-174 582.49,-180 576.49,-180"/>
<text text-anchor="middle" x="537.99" y="-159.5" font-family="sans" font-size="10.00">densmap_embed</text>
</g>
<!-- 7&#45;&gt;11 -->
<g id="edge33" class="edge">
<title>7&#45;&gt;11</title>
<path fill="none" stroke="grey" stroke-width="2" d="M537.99,-215.7C537.99,-207.98 537.99,-198.71 537.99,-190.11"/>
<polygon fill="grey" stroke="grey" stroke-width="2" points="541.49,-190.1 537.99,-180.1 534.49,-190.1 541.49,-190.1"/>
</g>
<!-- 8&#45;&gt;0 -->
<g id="edge12" class="edge">
<title>8&#45;&gt;0</title>
<path fill="none" stroke="grey" stroke-width="2" d="M689.57,-160.09C764.84,-157.47 918.93,-147.32 951.99,-108 962.28,-95.75 962.33,-84.21 951.99,-72 916.23,-29.82 746.63,-21.17 670.33,-19.43"/>
<polygon fill="grey" stroke="grey" stroke-width="2" points="670.27,-15.92 660.2,-19.22 670.13,-22.92 670.27,-15.92"/>
</g>
<!-- 8&#45;&gt;2 -->
<g id="edge16" class="edge">
<title>8&#45;&gt;2</title>
<path fill="none" stroke="grey" stroke-width="2" d="M606.42,-146.43C603.25,-145.53 600.08,-144.71 596.99,-144 480.45,-117.18 445.66,-129.27 324.08,-108.08"/>
<polygon fill="grey" stroke="grey" stroke-width="2" points="324.46,-104.59 314.01,-106.28 323.24,-111.49 324.46,-104.59"/>
</g>
<!-- 8&#45;&gt;4 -->
<g id="edge20" class="edge">
<title>8&#45;&gt;4</title>
<path fill="none" stroke="grey" stroke-width="2" d="M606.31,-146.85C603.16,-145.86 600.03,-144.9 596.99,-144 572.12,-136.64 512.26,-121.18 463.77,-108.85"/>
<polygon fill="grey" stroke="grey" stroke-width="2" points="464.48,-105.42 453.93,-106.35 462.76,-112.2 464.48,-105.42"/>
</g>
<!-- 8&#45;&gt;6 -->
<g id="edge26" class="edge">
<title>8&#45;&gt;6</title>
<path fill="none" stroke="grey" stroke-width="2" d="M621.08,-143.88C606.83,-134.81 589.14,-123.55 573.75,-113.76"/>
<polygon fill="grey" stroke="grey" stroke-width="2" points="575.31,-110.61 565,-108.19 571.56,-116.51 575.31,-110.61"/>
</g>
<!-- 9 -->
<g id="node10" class="node">
<title>9</title>
<path fill="none" stroke="#ced856" stroke-width="2" d="M930.99,-108C930.99,-108 820.99,-108 820.99,-108 814.99,-108 808.99,-102 808.99,-96 808.99,-96 808.99,-84 808.99,-84 808.99,-78 814.99,-72 820.99,-72 820.99,-72 930.99,-72 930.99,-72 936.99,-72 942.99,-78 942.99,-84 942.99,-84 942.99,-96 942.99,-96 942.99,-102 936.99,-108 930.99,-108"/>
<text text-anchor="middle" x="875.99" y="-87.5" font-family="sans" font-size="10.00">plot_umap_connectivity</text>
</g>
<!-- 8&#45;&gt;9 -->
<g id="edge29" class="edge">
<title>8&#45;&gt;9</title>
<path fill="none" stroke="grey" stroke-width="2" d="M689.54,-148.24C723.4,-137.85 771.83,-122.98 810.85,-111"/>
<polygon fill="grey" stroke="grey" stroke-width="2" points="812.01,-114.3 820.55,-108.02 809.96,-107.61 812.01,-114.3"/>
</g>
<!-- 10 -->
<g id="node11" class="node">
<title>10</title>
<path fill="none" stroke="#56d8a9" stroke-width="2" d="M778.49,-108C778.49,-108 673.49,-108 673.49,-108 667.49,-108 661.49,-102 661.49,-96 661.49,-96 661.49,-84 661.49,-84 661.49,-78 667.49,-72 673.49,-72 673.49,-72 778.49,-72 778.49,-72 784.49,-72 790.49,-78 790.49,-84 790.49,-84 790.49,-96 790.49,-96 790.49,-102 784.49,-108 778.49,-108"/>
<text text-anchor="middle" x="725.99" y="-87.5" font-family="sans" font-size="10.00">plot_umap_diagnostics</text>
</g>
<!-- 8&#45;&gt;10 -->
<g id="edge31" class="edge">
<title>8&#45;&gt;10</title>
<path fill="none" stroke="grey" stroke-width="2" d="M667.27,-143.7C676.9,-135.05 688.71,-124.45 699.21,-115.03"/>
<polygon fill="grey" stroke="grey" stroke-width="2" points="701.82,-117.39 706.93,-108.1 697.15,-112.18 701.82,-117.39"/>
</g>
<!-- 9&#45;&gt;0 -->
<g id="edge7" class="edge">
<title>9&#45;&gt;0</title>
<path fill="none" stroke="grey" stroke-width="2" d="M816.85,-71.97C771.07,-58.78 709.08,-40.92 670.06,-29.68"/>
<polygon fill="grey" stroke="grey" stroke-width="2" points="670.76,-26.24 660.18,-26.83 668.82,-32.97 670.76,-26.24"/>
</g>
<!-- 10&#45;&gt;0 -->
<g id="edge10" class="edge">
<title>10&#45;&gt;0</title>
<path fill="none" stroke="grey" stroke-width="2" d="M703,-71.7C691.17,-62.8 676.59,-51.82 663.81,-42.2"/>
<polygon fill="grey" stroke="grey" stroke-width="2" points="665.8,-39.32 655.71,-36.1 661.59,-44.91 665.8,-39.32"/>
</g>
<!-- 11&#45;&gt;0 -->
<g id="edge13" class="edge">
<title>11&#45;&gt;0</title>
<path fill="none" stroke="grey" stroke-width="2" d="M572.69,-143.89C587.2,-135.07 602.99,-122.99 612.99,-108 625.24,-89.63 630.08,-64.88 631.94,-46.14"/>
<polygon fill="grey" stroke="grey" stroke-width="2" points="635.43,-46.4 632.72,-36.16 628.45,-45.86 635.43,-46.4"/>
</g>
<!-- 11&#45;&gt;2 -->
<g id="edge17" class="edge">
<title>11&#45;&gt;2</title>
<path fill="none" stroke="grey" stroke-width="2" d="M487.16,-148.65C441.97,-137.66 375.33,-121.46 324.18,-109.03"/>
<polygon fill="grey" stroke="grey" stroke-width="2" points="324.71,-105.56 314.17,-106.6 323.06,-112.36 324.71,-105.56"/>
</g>
<!-- 11&#45;&gt;4 -->
<g id="edge21" class="edge">
<title>11&#45;&gt;4</title>
<path fill="none" stroke="grey" stroke-width="2" d="M502.51,-143.88C482.87,-134.39 458.26,-122.51 437.35,-112.42"/>
<polygon fill="grey" stroke="grey" stroke-width="2" points="438.87,-109.26 428.34,-108.07 435.83,-115.57 438.87,-109.26"/>
</g>
<!-- 11&#45;&gt;6 -->
<g id="edge27" class="edge">
<title>11&#45;&gt;6</title>
<path fill="none" stroke="grey" stroke-width="2" d="M537.99,-143.7C537.99,-135.98 537.99,-126.71 537.99,-118.11"/>
<polygon fill="grey" stroke="grey" stroke-width="2" points="541.49,-118.1 537.99,-108.1 534.49,-118.1 541.49,-118.1"/>
</g>
<!-- 11&#45;&gt;9 -->
<g id="edge30" class="edge">
<title>11&#45;&gt;9</title>
<path fill="none" stroke="grey" stroke-width="2" d="M588.75,-146.01C591.53,-145.3 594.29,-144.63 596.99,-144 685.81,-123.35 709.55,-125.83 798.99,-108 799.09,-107.98 799.19,-107.96 799.29,-107.94"/>
<polygon fill="grey" stroke="grey" stroke-width="2" points="799.73,-111.42 808.83,-106 798.33,-104.56 799.73,-111.42"/>
</g>
<!-- 11&#45;&gt;10 -->
<g id="edge32" class="edge">
<title>11&#45;&gt;10</title>
<path fill="none" stroke="grey" stroke-width="2" d="M583.98,-143.88C610.13,-134.14 643.07,-121.87 670.64,-111.61"/>
<polygon fill="grey" stroke="grey" stroke-width="2" points="671.99,-114.84 680.14,-108.07 669.55,-108.28 671.99,-114.84"/>
</g>
<!-- 12 -->
<g id="node13" class="node">
<title>12</title>
<path fill="none" stroke="#56c1d8" stroke-width="2" d="M1070.99,-108C1070.99,-108 1010.99,-108 1010.99,-108 1004.99,-108 998.99,-102 998.99,-96 998.99,-96 998.99,-84 998.99,-84 998.99,-78 1004.99,-72 1010.99,-72 1010.99,-72 1070.99,-72 1070.99,-72 1076.99,-72 1082.99,-78 1082.99,-84 1082.99,-84 1082.99,-96 1082.99,-96 1082.99,-102 1076.99,-108 1070.99,-108"/>
<text text-anchor="middle" x="1040.99" y="-87.5" font-family="sans" font-size="10.00">plot_heatmap</text>
</g>
<!-- 12&#45;&gt;0 -->
<g id="edge11" class="edge">
<title>12&#45;&gt;0</title>
<path fill="none" stroke="grey" stroke-width="2" d="M998.96,-75.53C994.27,-74.24 989.54,-73.03 984.99,-72 871.64,-46.4 734.9,-29.82 670.28,-22.81"/>
<polygon fill="grey" stroke="grey" stroke-width="2" points="670.49,-19.31 660.17,-21.73 669.74,-26.27 670.49,-19.31"/>
</g>
<!-- 13 -->
<g id="node14" class="node">
<title>13</title>
<path fill="none" stroke="#d8bc56" stroke-width="2" d="M1160.49,-108C1160.49,-108 1113.49,-108 1113.49,-108 1107.49,-108 1101.49,-102 1101.49,-96 1101.49,-96 1101.49,-84 1101.49,-84 1101.49,-78 1107.49,-72 1113.49,-72 1113.49,-72 1160.49,-72 1160.49,-72 1166.49,-72 1172.49,-78 1172.49,-84 1172.49,-84 1172.49,-96 1172.49,-96 1172.49,-102 1166.49,-108 1160.49,-108"/>
<text text-anchor="middle" x="1136.99" y="-87.5" font-family="sans" font-size="10.00">env_export</text>
</g>
<!-- 13&#45;&gt;0 -->
<g id="edge3" class="edge">
<title>13&#45;&gt;0</title>
<path fill="none" stroke="grey" stroke-width="2" d="M1101.37,-74.64C1098.23,-73.65 1095.07,-72.75 1091.99,-72 938.43,-34.73 749.42,-23.44 670.44,-20.21"/>
<polygon fill="grey" stroke="grey" stroke-width="2" points="670.16,-16.7 660.04,-19.81 669.89,-23.69 670.16,-16.7"/>
</g>
<!-- 14 -->
<g id="node15" class="node">
<title>14</title>
<path fill="none" stroke="#56d88a" stroke-width="2" d="M1261.49,-108C1261.49,-108 1202.49,-108 1202.49,-108 1196.49,-108 1190.49,-102 1190.49,-96 1190.49,-96 1190.49,-84 1190.49,-84 1190.49,-78 1196.49,-72 1202.49,-72 1202.49,-72 1261.49,-72 1261.49,-72 1267.49,-72 1273.49,-78 1273.49,-84 1273.49,-84 1273.49,-96 1273.49,-96 1273.49,-102 1267.49,-108 1261.49,-108"/>
<text text-anchor="middle" x="1231.99" y="-87.5" font-family="sans" font-size="10.00">config_export</text>
</g>
<!-- 14&#45;&gt;0 -->
<g id="edge9" class="edge">
<title>14&#45;&gt;0</title>
<path fill="none" stroke="grey" stroke-width="2" d="M1190.45,-74.07C1187.6,-73.3 1184.76,-72.6 1181.99,-72 992.63,-31.25 759.75,-21.81 670.35,-19.64"/>
<polygon fill="grey" stroke="grey" stroke-width="2" points="670.25,-16.14 660.17,-19.41 670.09,-23.13 670.25,-16.14"/>
</g>
</g>
</svg>
