<?xml version="1.0" encoding="UTF-8" standalone="no"?>
<!DOCTYPE svg PUBLIC "-//W3C//DTD SVG 1.1//EN"
 "http://www.w3.org/Graphics/SVG/1.1/DTD/svg11.dtd">
<!-- Generated by graphviz version 2.47.2 (20210527.1257)
 -->
<!-- Title: snakemake_dag Pages: 1 -->
<svg width="882pt" height="260pt"
 viewBox="0.00 0.00 882.16 260.00" xmlns="http://www.w3.org/2000/svg" xmlns:xlink="http://www.w3.org/1999/xlink">
<g id="graph0" class="graph" transform="scale(1 1) rotate(0) translate(4 256)">
<title>snakemake_dag</title>
<polygon fill="white" stroke="transparent" points="-4,4 -4,-256 878.16,-256 878.16,4 -4,4"/>
<!-- 0 -->
<g id="node1" class="node">
<title>0</title>
<path fill="none" stroke="#d88d56" stroke-width="2" d="M344.66,-36C344.66,-36 314.66,-36 314.66,-36 308.66,-36 302.66,-30 302.66,-24 302.66,-24 302.66,-12 302.66,-12 302.66,-6 308.66,0 314.66,0 314.66,0 344.66,0 344.66,0 350.66,0 356.66,-6 356.66,-12 356.66,-12 356.66,-24 356.66,-24 356.66,-30 350.66,-36 344.66,-36"/>
<text text-anchor="middle" x="329.66" y="-15.5" font-family="sans" font-size="10.00">all</text>
</g>
<!-- 1 -->
<g id="node2" class="node">
<title>1</title>
<path fill="none" stroke="#d8bc56" stroke-width="2" d="M85.66,-180C85.66,-180 55.66,-180 55.66,-180 49.66,-180 43.66,-174 43.66,-168 43.66,-168 43.66,-156 43.66,-156 43.66,-150 49.66,-144 55.66,-144 55.66,-144 85.66,-144 85.66,-144 91.66,-144 97.66,-150 97.66,-156 97.66,-156 97.66,-168 97.66,-168 97.66,-174 91.66,-180 85.66,-180"/>
<text text-anchor="middle" x="70.66" y="-159.5" font-family="sans" font-size="10.00">pca</text>
</g>
<!-- 1&#45;&gt;0 -->
<g id="edge3" class="edge">
<title>1&#45;&gt;0</title>
<path fill="none" stroke="grey" stroke-width="2" d="M43.56,-146.39C29.77,-137.34 14.33,-124.32 6.66,-108 -0.15,-93.52 -3.7,-84.2 6.66,-72 42.98,-29.24 215.44,-20.91 292.41,-19.34"/>
<polygon fill="grey" stroke="grey" stroke-width="2" points="292.68,-22.83 302.62,-19.16 292.56,-15.84 292.68,-22.83"/>
</g>
<!-- 2 -->
<g id="node3" class="node">
<title>2</title>
<path fill="none" stroke="#56d88a" stroke-width="2" d="M113.66,-108C113.66,-108 27.66,-108 27.66,-108 21.66,-108 15.66,-102 15.66,-96 15.66,-96 15.66,-84 15.66,-84 15.66,-78 21.66,-72 27.66,-72 27.66,-72 113.66,-72 113.66,-72 119.66,-72 125.66,-78 125.66,-84 125.66,-84 125.66,-96 125.66,-96 125.66,-102 119.66,-108 113.66,-108"/>
<text text-anchor="middle" x="70.66" y="-87.5" font-family="sans" font-size="10.00">plot_pca_metadata</text>
</g>
<!-- 1&#45;&gt;2 -->
<g id="edge10" class="edge">
<title>1&#45;&gt;2</title>
<path fill="none" stroke="grey" stroke-width="2" d="M70.66,-143.7C70.66,-135.98 70.66,-126.71 70.66,-118.11"/>
<polygon fill="grey" stroke="grey" stroke-width="2" points="74.16,-118.1 70.66,-108.1 67.16,-118.1 74.16,-118.1"/>
</g>
<!-- 3 -->
<g id="node4" class="node">
<title>3</title>
<path fill="none" stroke="#bed856" stroke-width="2" d="M251.16,-108C251.16,-108 156.16,-108 156.16,-108 150.16,-108 144.16,-102 144.16,-96 144.16,-96 144.16,-84 144.16,-84 144.16,-78 150.16,-72 156.16,-72 156.16,-72 251.16,-72 251.16,-72 257.16,-72 263.16,-78 263.16,-84 263.16,-84 263.16,-96 263.16,-96 263.16,-102 257.16,-108 251.16,-108"/>
<text text-anchor="middle" x="203.66" y="-87.5" font-family="sans" font-size="10.00">plot_pca_diagnostics</text>
</g>
<!-- 1&#45;&gt;3 -->
<g id="edge11" class="edge">
<title>1&#45;&gt;3</title>
<path fill="none" stroke="grey" stroke-width="2" d="M97.89,-146.67C116.43,-136.91 141.31,-123.82 162.28,-112.78"/>
<polygon fill="grey" stroke="grey" stroke-width="2" points="164.08,-115.79 171.3,-108.03 160.82,-109.59 164.08,-115.79"/>
</g>
<!-- 2&#45;&gt;0 -->
<g id="edge6" class="edge">
<title>2&#45;&gt;0</title>
<path fill="none" stroke="grey" stroke-width="2" d="M125.9,-74.07C176.11,-60.5 248.79,-40.86 292.42,-29.06"/>
<polygon fill="grey" stroke="grey" stroke-width="2" points="293.59,-32.38 302.33,-26.39 291.76,-25.62 293.59,-32.38"/>
</g>
<!-- 3&#45;&gt;0 -->
<g id="edge4" class="edge">
<title>3&#45;&gt;0</title>
<path fill="none" stroke="grey" stroke-width="2" d="M234.48,-71.88C252.39,-61.93 275.04,-49.35 293.75,-38.95"/>
<polygon fill="grey" stroke="grey" stroke-width="2" points="295.54,-41.96 302.58,-34.05 292.14,-35.84 295.54,-41.96"/>
</g>
<!-- 4 -->
<g id="node5" class="node">
<title>4</title>
<path fill="none" stroke="#d85656" stroke-width="2" d="M383.16,-252C383.16,-252 330.16,-252 330.16,-252 324.16,-252 318.16,-246 318.16,-240 318.16,-240 318.16,-228 318.16,-228 318.16,-222 324.16,-216 330.16,-216 330.16,-216 383.16,-216 383.16,-216 389.16,-216 395.16,-222 395.16,-228 395.16,-228 395.16,-240 395.16,-240 395.16,-246 389.16,-252 383.16,-252"/>
<text text-anchor="middle" x="356.66" y="-231.5" font-family="sans" font-size="10.00">umap_graph</text>
</g>
<!-- 4&#45;&gt;0 -->
<g id="edge1" class="edge">
<title>4&#45;&gt;0</title>
<path fill="none" stroke="grey" stroke-width="2" d="M352.21,-215.76C346.26,-191.79 335.96,-146.94 331.66,-108 329.38,-87.39 328.94,-63.94 329.04,-46.29"/>
<polygon fill="grey" stroke="grey" stroke-width="2" points="332.54,-46.16 329.16,-36.12 325.54,-46.08 332.54,-46.16"/>
</g>
<!-- 5 -->
<g id="node6" class="node">
<title>5</title>
<path fill="none" stroke="#568ad8" stroke-width="2" d="M451.16,-180C451.16,-180 392.16,-180 392.16,-180 386.16,-180 380.16,-174 380.16,-168 380.16,-168 380.16,-156 380.16,-156 380.16,-150 386.16,-144 392.16,-144 392.16,-144 451.16,-144 451.16,-144 457.16,-144 463.16,-150 463.16,-156 463.16,-156 463.16,-168 463.16,-168 463.16,-174 457.16,-180 451.16,-180"/>
<text text-anchor="middle" x="421.66" y="-159.5" font-family="sans" font-size="10.00">umap_embed</text>
</g>
<!-- 4&#45;&gt;5 -->
<g id="edge12" class="edge">
<title>4&#45;&gt;5</title>
<path fill="none" stroke="grey" stroke-width="2" d="M372.73,-215.7C380.6,-207.22 390.21,-196.86 398.83,-187.58"/>
<polygon fill="grey" stroke="grey" stroke-width="2" points="401.54,-189.81 405.78,-180.1 396.41,-185.05 401.54,-189.81"/>
</g>
<!-- 5&#45;&gt;0 -->
<g id="edge9" class="edge">
<title>5&#45;&gt;0</title>
<path fill="none" stroke="grey" stroke-width="2" d="M388.18,-143.99C373.93,-135.12 358.39,-122.97 348.66,-108 336.71,-89.62 332.13,-65.02 330.44,-46.34"/>
<polygon fill="grey" stroke="grey" stroke-width="2" points="333.92,-45.85 329.75,-36.11 326.94,-46.33 333.92,-45.85"/>
</g>
<!-- 6 -->
<g id="node7" class="node">
<title>6</title>
<path fill="none" stroke="#56c1d8" stroke-width="2" d="M473.66,-108C473.66,-108 369.66,-108 369.66,-108 363.66,-108 357.66,-102 357.66,-96 357.66,-96 357.66,-84 357.66,-84 357.66,-78 363.66,-72 369.66,-72 369.66,-72 473.66,-72 473.66,-72 479.66,-72 485.66,-78 485.66,-84 485.66,-84 485.66,-96 485.66,-96 485.66,-102 479.66,-108 473.66,-108"/>
<text text-anchor="middle" x="421.66" y="-87.5" font-family="sans" font-size="10.00">plot_dimred_metadata</text>
</g>
<!-- 5&#45;&gt;6 -->
<g id="edge13" class="edge">
<title>5&#45;&gt;6</title>
<path fill="none" stroke="grey" stroke-width="2" d="M421.66,-143.7C421.66,-135.98 421.66,-126.71 421.66,-118.11"/>
<polygon fill="grey" stroke="grey" stroke-width="2" points="425.16,-118.1 421.66,-108.1 418.16,-118.1 425.16,-118.1"/>
</g>
<!-- 7 -->
<g id="node8" class="node">
<title>7</title>
<path fill="none" stroke="#88d856" stroke-width="2" d="M625.66,-108C625.66,-108 515.66,-108 515.66,-108 509.66,-108 503.66,-102 503.66,-96 503.66,-96 503.66,-84 503.66,-84 503.66,-78 509.66,-72 515.66,-72 515.66,-72 625.66,-72 625.66,-72 631.66,-72 637.66,-78 637.66,-84 637.66,-84 637.66,-96 637.66,-96 637.66,-102 631.66,-108 625.66,-108"/>
<text text-anchor="middle" x="570.66" y="-87.5" font-family="sans" font-size="10.00">plot_umap_connectivity</text>
</g>
<!-- 5&#45;&gt;7 -->
<g id="edge14" class="edge">
<title>5&#45;&gt;7</title>
<path fill="none" stroke="grey" stroke-width="2" d="M458.11,-143.88C478.3,-134.39 503.58,-122.51 525.07,-112.42"/>
<polygon fill="grey" stroke="grey" stroke-width="2" points="526.77,-115.49 534.33,-108.07 523.79,-109.15 526.77,-115.49"/>
</g>
<!-- 8 -->
<g id="node9" class="node">
<title>8</title>
<path fill="none" stroke="#59d856" stroke-width="2" d="M773.16,-108C773.16,-108 668.16,-108 668.16,-108 662.16,-108 656.16,-102 656.16,-96 656.16,-96 656.16,-84 656.16,-84 656.16,-78 662.16,-72 668.16,-72 668.16,-72 773.16,-72 773.16,-72 779.16,-72 785.16,-78 785.16,-84 785.16,-84 785.16,-96 785.16,-96 785.16,-102 779.16,-108 773.16,-108"/>
<text text-anchor="middle" x="720.66" y="-87.5" font-family="sans" font-size="10.00">plot_umap_diagnostics</text>
</g>
<!-- 5&#45;&gt;8 -->
<g id="edge15" class="edge">
<title>5&#45;&gt;8</title>
<path fill="none" stroke="grey" stroke-width="2" d="M463.23,-151.27C510.48,-140.2 588.53,-121.93 646.33,-108.4"/>
<polygon fill="grey" stroke="grey" stroke-width="2" points="647.2,-111.79 656.14,-106.1 645.61,-104.98 647.2,-111.79"/>
</g>
<!-- 6&#45;&gt;0 -->
<g id="edge8" class="edge">
<title>6&#45;&gt;0</title>
<path fill="none" stroke="grey" stroke-width="2" d="M398.92,-71.7C387.22,-62.8 372.8,-51.82 360.15,-42.2"/>
<polygon fill="grey" stroke="grey" stroke-width="2" points="362.22,-39.37 352.14,-36.1 357.98,-44.94 362.22,-39.37"/>
</g>
<!-- 7&#45;&gt;0 -->
<g id="edge2" class="edge">
<title>7&#45;&gt;0</title>
<path fill="none" stroke="grey" stroke-width="2" d="M512.01,-71.97C466.74,-58.81 405.47,-41.02 366.76,-29.78"/>
<polygon fill="grey" stroke="grey" stroke-width="2" points="367.53,-26.35 356.95,-26.93 365.57,-33.08 367.53,-26.35"/>
</g>
<!-- 8&#45;&gt;0 -->
<g id="edge5" class="edge">
<title>8&#45;&gt;0</title>
<path fill="none" stroke="grey" stroke-width="2" d="M656.13,-73.94C652.93,-73.26 649.76,-72.62 646.66,-72 545.97,-52.04 426.31,-33.4 366.92,-24.49"/>
<polygon fill="grey" stroke="grey" stroke-width="2" points="367.31,-21.01 356.9,-22.99 366.27,-27.93 367.31,-21.01"/>
</g>
<!-- 9 -->
<g id="node10" class="node">
<title>9</title>
<path fill="none" stroke="#56d8c1" stroke-width="2" d="M862.16,-108C862.16,-108 815.16,-108 815.16,-108 809.16,-108 803.16,-102 803.16,-96 803.16,-96 803.16,-84 803.16,-84 803.16,-78 809.16,-72 815.16,-72 815.16,-72 862.16,-72 862.16,-72 868.16,-72 874.16,-78 874.16,-84 874.16,-84 874.16,-96 874.16,-96 874.16,-102 868.16,-108 862.16,-108"/>
<text text-anchor="middle" x="838.66" y="-87.5" font-family="sans" font-size="10.00">env_export</text>
</g>
<!-- 9&#45;&gt;0 -->
<g id="edge7" class="edge">
<title>9&#45;&gt;0</title>
<path fill="none" stroke="grey" stroke-width="2" d="M802.88,-74.32C800.12,-73.45 797.36,-72.66 794.66,-72 638.73,-33.66 446.43,-22.93 366.84,-20.03"/>
<polygon fill="grey" stroke="grey" stroke-width="2" points="366.93,-16.53 356.82,-19.68 366.69,-23.53 366.93,-16.53"/>
</g>
</g>
</svg>
