<?xml version="1.0" encoding="UTF-8" standalone="no"?>
<!DOCTYPE svg PUBLIC "-//W3C//DTD SVG 1.1//EN"
 "http://www.w3.org/Graphics/SVG/1.1/DTD/svg11.dtd">
<!-- Generated by graphviz version 2.40.1 (0)
 -->
<!-- Title: snakemake_dag Pages: 1 -->
<svg width="1990pt" height="620pt"
 viewBox="0.00 0.00 1990.00 620.00" xmlns="http://www.w3.org/2000/svg" xmlns:xlink="http://www.w3.org/1999/xlink">
<g id="graph0" class="graph" transform="scale(1 1) rotate(0) translate(4 616)">
<title>snakemake_dag</title>
<polygon fill="#ffffff" stroke="transparent" points="-4,4 -4,-616 1986,-616 1986,4 -4,4"/>
<!-- 0 -->
<g id="node1" class="node">
<title>0</title>
<path fill="none" stroke="#97d856" stroke-width="2" d="M1298.5,-36C1298.5,-36 1268.5,-36 1268.5,-36 1262.5,-36 1256.5,-30 1256.5,-24 1256.5,-24 1256.5,-12 1256.5,-12 1256.5,-6 1262.5,0 1268.5,0 1268.5,0 1298.5,0 1298.5,0 1304.5,0 1310.5,-6 1310.5,-12 1310.5,-12 1310.5,-24 1310.5,-24 1310.5,-30 1304.5,-36 1298.5,-36"/>
<text text-anchor="middle" x="1283.5" y="-15.5" font-family="sans" font-size="10.00" fill="#000000">all</text>
</g>
<!-- 1 -->
<g id="node2" class="node">
<title>1</title>
<path fill="none" stroke="#56d89a" stroke-width="2" d="M778.5,-324C778.5,-324 748.5,-324 748.5,-324 742.5,-324 736.5,-318 736.5,-312 736.5,-312 736.5,-300 736.5,-300 736.5,-294 742.5,-288 748.5,-288 748.5,-288 778.5,-288 778.5,-288 784.5,-288 790.5,-294 790.5,-300 790.5,-300 790.5,-312 790.5,-312 790.5,-318 784.5,-324 778.5,-324"/>
<text text-anchor="middle" x="763.5" y="-303.5" font-family="sans" font-size="10.00" fill="#000000">pca</text>
</g>
<!-- 1&#45;&gt;0 -->
<g id="edge16" class="edge">
<title>1&#45;&gt;0</title>
<path fill="none" stroke="#c0c0c0" stroke-width="2" d="M736.3387,-294.9225C729.0257,-292.2998 721.0478,-289.7577 713.5,-288 571.521,-254.9374 309.0319,-334.812 393.5,-216 495.3748,-72.7038 1090.6162,-29.0057 1246.2678,-19.9542"/>
<polygon fill="#c0c0c0" stroke="#c0c0c0" stroke-width="2" points="1246.5043,-23.4465 1256.2895,-19.3843 1246.1069,-16.4578 1246.5043,-23.4465"/>
</g>
<!-- 2 -->
<g id="node3" class="node">
<title>2</title>
<path fill="none" stroke="#56b9d8" stroke-width="2" d="M828.5,-252C828.5,-252 724.5,-252 724.5,-252 718.5,-252 712.5,-246 712.5,-240 712.5,-240 712.5,-228 712.5,-228 712.5,-222 718.5,-216 724.5,-216 724.5,-216 828.5,-216 828.5,-216 834.5,-216 840.5,-222 840.5,-228 840.5,-228 840.5,-240 840.5,-240 840.5,-246 834.5,-252 828.5,-252"/>
<text text-anchor="middle" x="776.5" y="-231.5" font-family="sans" font-size="10.00" fill="#000000">plot_dimred_metadata</text>
</g>
<!-- 1&#45;&gt;2 -->
<g id="edge22" class="edge">
<title>1&#45;&gt;2</title>
<path fill="none" stroke="#c0c0c0" stroke-width="2" d="M766.7804,-287.8314C768.1708,-280.131 769.8241,-270.9743 771.3692,-262.4166"/>
<polygon fill="#c0c0c0" stroke="#c0c0c0" stroke-width="2" points="774.8428,-262.8761 773.1754,-252.4133 767.9542,-261.6322 774.8428,-262.8761"/>
</g>
<!-- 9 -->
<g id="node10" class="node">
<title>9</title>
<path fill="none" stroke="#bed856" stroke-width="2" d="M1266,-252C1266,-252 1169,-252 1169,-252 1163,-252 1157,-246 1157,-240 1157,-240 1157,-228 1157,-228 1157,-222 1163,-216 1169,-216 1169,-216 1266,-216 1266,-216 1272,-216 1278,-222 1278,-228 1278,-228 1278,-240 1278,-240 1278,-246 1272,-252 1266,-252"/>
<text text-anchor="middle" x="1217.5" y="-231.5" font-family="sans" font-size="10.00" fill="#000000">plot_dimred_features</text>
</g>
<!-- 1&#45;&gt;9 -->
<g id="edge30" class="edge">
<title>1&#45;&gt;9</title>
<path fill="none" stroke="#c0c0c0" stroke-width="2" d="M790.6018,-291.181C793.5473,-289.9555 796.548,-288.8596 799.5,-288 945.5836,-245.4603 992.4382,-277.9737 1146.6029,-251.9656"/>
<polygon fill="#c0c0c0" stroke="#c0c0c0" stroke-width="2" points="1147.6652,-255.3332 1156.9148,-250.1664 1146.4621,-248.4373 1147.6652,-255.3332"/>
</g>
<!-- 10 -->
<g id="node11" class="node">
<title>10</title>
<path fill="none" stroke="#d85656" stroke-width="2" d="M1126.5,-252C1126.5,-252 1022.5,-252 1022.5,-252 1016.5,-252 1010.5,-246 1010.5,-240 1010.5,-240 1010.5,-228 1010.5,-228 1010.5,-222 1016.5,-216 1022.5,-216 1022.5,-216 1126.5,-216 1126.5,-216 1132.5,-216 1138.5,-222 1138.5,-228 1138.5,-228 1138.5,-240 1138.5,-240 1138.5,-246 1132.5,-252 1126.5,-252"/>
<text text-anchor="middle" x="1074.5" y="-231.5" font-family="sans" font-size="10.00" fill="#000000">plot_dimred_clustering</text>
</g>
<!-- 1&#45;&gt;10 -->
<g id="edge34" class="edge">
<title>1&#45;&gt;10</title>
<path fill="none" stroke="#c0c0c0" stroke-width="2" d="M790.6715,-291.4049C793.6034,-290.1357 796.5819,-288.9684 799.5,-288 885.6353,-259.414 911.6997,-270.7339 1000.5,-252 1000.6011,-251.9787 1000.7022,-251.9573 1000.8034,-251.9359"/>
<polygon fill="#c0c0c0" stroke="#c0c0c0" stroke-width="2" points="1001.3526,-255.3984 1010.3796,-249.8519 999.864,-248.5585 1001.3526,-255.3984"/>
</g>
<!-- 11 -->
<g id="node12" class="node">
<title>11</title>
<path fill="none" stroke="#56d873" stroke-width="2" d="M510,-252C510,-252 415,-252 415,-252 409,-252 403,-246 403,-240 403,-240 403,-228 403,-228 403,-222 409,-216 415,-216 415,-216 510,-216 510,-216 516,-216 522,-222 522,-228 522,-228 522,-240 522,-240 522,-246 516,-252 510,-252"/>
<text text-anchor="middle" x="462.5" y="-231.5" font-family="sans" font-size="10.00" fill="#000000">plot_pca_diagnostics</text>
</g>
<!-- 1&#45;&gt;11 -->
<g id="edge39" class="edge">
<title>1&#45;&gt;11</title>
<path fill="none" stroke="#c0c0c0" stroke-width="2" d="M736.4917,-295.4395C729.108,-292.783 721.057,-290.0949 713.5,-288 637.1443,-266.8335 613.6927,-270.1085 532.4827,-252.1309"/>
<polygon fill="#c0c0c0" stroke="#c0c0c0" stroke-width="2" points="532.8104,-248.617 522.2853,-249.8301 531.2697,-255.4453 532.8104,-248.617"/>
</g>
<!-- 12 -->
<g id="node13" class="node">
<title>12</title>
<path fill="none" stroke="#56d8d0" stroke-width="2" d="M980,-252C980,-252 871,-252 871,-252 865,-252 859,-246 859,-240 859,-240 859,-228 859,-228 859,-222 865,-216 871,-216 871,-216 980,-216 980,-216 986,-216 992,-222 992,-228 992,-228 992,-240 992,-240 992,-246 986,-252 980,-252"/>
<text text-anchor="middle" x="925.5" y="-231.5" font-family="sans" font-size="10.00" fill="#000000">plot_dimred_interactive</text>
</g>
<!-- 1&#45;&gt;12 -->
<g id="edge43" class="edge">
<title>1&#45;&gt;12</title>
<path fill="none" stroke="#c0c0c0" stroke-width="2" d="M790.5441,-292.2649C793.5536,-290.8 796.584,-289.3524 799.5,-288 823.1143,-277.0477 849.5503,-265.597 872.0863,-256.0729"/>
<polygon fill="#c0c0c0" stroke="#c0c0c0" stroke-width="2" points="873.6274,-259.2217 881.4863,-252.1162 870.9116,-252.77 873.6274,-259.2217"/>
</g>
<!-- 23 -->
<g id="node24" class="node">
<title>23</title>
<path fill="none" stroke="#d87d56" stroke-width="2" d="M334.5,-252C334.5,-252 250.5,-252 250.5,-252 244.5,-252 238.5,-246 238.5,-240 238.5,-240 238.5,-228 238.5,-228 238.5,-222 244.5,-216 250.5,-216 250.5,-216 334.5,-216 334.5,-216 340.5,-216 346.5,-222 346.5,-228 346.5,-228 346.5,-240 346.5,-240 346.5,-246 340.5,-252 334.5,-252"/>
<text text-anchor="middle" x="292.5" y="-231.5" font-family="sans" font-size="10.00" fill="#000000">validation_internal</text>
</g>
<!-- 1&#45;&gt;23 -->
<g id="edge59" class="edge">
<title>1&#45;&gt;23</title>
<path fill="none" stroke="#c0c0c0" stroke-width="2" d="M736.351,-294.8693C729.0378,-292.2471 721.0569,-289.7184 713.5,-288 559.7231,-253.0318 515.6491,-280.2647 360.5,-252 359.216,-251.7661 357.9206,-251.5203 356.6171,-251.2641"/>
<polygon fill="#c0c0c0" stroke="#c0c0c0" stroke-width="2" points="357.0269,-247.7731 346.5178,-249.1185 355.5722,-254.6203 357.0269,-247.7731"/>
</g>
<!-- 2&#45;&gt;0 -->
<g id="edge17" class="edge">
<title>2&#45;&gt;0</title>
<path fill="none" stroke="#c0c0c0" stroke-width="2" d="M813.4694,-215.9362C877.6586,-184.8533 1014.1973,-119.9729 1132.5,-72 1170.8632,-56.4433 1215.6029,-40.7407 1246.3697,-30.3099"/>
<polygon fill="#c0c0c0" stroke="#c0c0c0" stroke-width="2" points="1247.8809,-33.494 1256.2385,-26.9824 1245.6444,-26.8609 1247.8809,-33.494"/>
</g>
<!-- 3 -->
<g id="node4" class="node">
<title>3</title>
<path fill="none" stroke="#56d8a9" stroke-width="2" d="M900,-324C900,-324 821,-324 821,-324 815,-324 809,-318 809,-312 809,-312 809,-300 809,-300 809,-294 815,-288 821,-288 821,-288 900,-288 900,-288 906,-288 912,-294 912,-300 912,-300 912,-312 912,-312 912,-318 906,-324 900,-324"/>
<text text-anchor="middle" x="860.5" y="-303.5" font-family="sans" font-size="10.00" fill="#000000">prep_feature_plot</text>
</g>
<!-- 3&#45;&gt;2 -->
<g id="edge19" class="edge">
<title>3&#45;&gt;2</title>
<path fill="none" stroke="#c0c0c0" stroke-width="2" d="M839.3033,-287.8314C829.0566,-279.0485 816.5997,-268.3712 805.4903,-258.8489"/>
<polygon fill="#c0c0c0" stroke="#c0c0c0" stroke-width="2" points="807.5603,-256.0134 797.69,-252.1628 803.0048,-261.3282 807.5603,-256.0134"/>
</g>
<!-- 3&#45;&gt;9 -->
<g id="edge29" class="edge">
<title>3&#45;&gt;9</title>
<path fill="none" stroke="#c0c0c0" stroke-width="2" d="M912.0336,-297.3554C967.5573,-287.8062 1058.7075,-271.4518 1146.9435,-252.0497"/>
<polygon fill="#c0c0c0" stroke="#c0c0c0" stroke-width="2" points="1147.8458,-255.4347 1156.8523,-249.855 1146.3321,-248.6003 1147.8458,-255.4347"/>
</g>
<!-- 3&#45;&gt;11 -->
<g id="edge38" class="edge">
<title>3&#45;&gt;11</title>
<path fill="none" stroke="#c0c0c0" stroke-width="2" d="M808.7247,-290.1342C805.6155,-289.3646 802.5236,-288.6452 799.5,-288 685.0643,-263.5809 651.1936,-274.5889 532.1028,-251.9713"/>
<polygon fill="#c0c0c0" stroke="#c0c0c0" stroke-width="2" points="532.72,-248.5259 522.2366,-250.0584 531.3876,-255.3979 532.72,-248.5259"/>
</g>
<!-- 3&#45;&gt;12 -->
<g id="edge40" class="edge">
<title>3&#45;&gt;12</title>
<path fill="none" stroke="#c0c0c0" stroke-width="2" d="M876.9022,-287.8314C884.5415,-279.3694 893.7683,-269.1489 902.1207,-259.8971"/>
<polygon fill="#c0c0c0" stroke="#c0c0c0" stroke-width="2" points="904.7738,-262.1813 908.8769,-252.4133 899.5779,-257.4906 904.7738,-262.1813"/>
</g>
<!-- 19 -->
<g id="node20" class="node">
<title>19</title>
<path fill="none" stroke="#56c9d8" stroke-width="2" d="M682.5,-252C682.5,-252 552.5,-252 552.5,-252 546.5,-252 540.5,-246 540.5,-240 540.5,-240 540.5,-228 540.5,-228 540.5,-222 546.5,-216 552.5,-216 552.5,-216 682.5,-216 682.5,-216 688.5,-216 694.5,-222 694.5,-228 694.5,-228 694.5,-240 694.5,-240 694.5,-246 688.5,-252 682.5,-252"/>
<text text-anchor="middle" x="617.5" y="-231.5" font-family="sans" font-size="10.00" fill="#000000">clustree_analysis_metadata</text>
</g>
<!-- 3&#45;&gt;19 -->
<g id="edge53" class="edge">
<title>3&#45;&gt;19</title>
<path fill="none" stroke="#c0c0c0" stroke-width="2" d="M808.966,-290.7307C773.7753,-280.3038 726.7059,-266.3573 688.0435,-254.9018"/>
<polygon fill="#c0c0c0" stroke="#c0c0c0" stroke-width="2" points="688.9899,-251.5319 678.4076,-252.0467 687.0012,-258.2434 688.9899,-251.5319"/>
</g>
<!-- 4 -->
<g id="node5" class="node">
<title>4</title>
<path fill="none" stroke="#d6d856" stroke-width="2" d="M693,-324C693,-324 542,-324 542,-324 536,-324 530,-318 530,-312 530,-312 530,-300 530,-300 530,-294 536,-288 542,-288 542,-288 693,-288 693,-288 699,-288 705,-294 705,-300 705,-300 705,-312 705,-312 705,-318 699,-324 693,-324"/>
<text text-anchor="middle" x="617.5" y="-303.5" font-family="sans" font-size="10.00" fill="#000000">aggregate_all_clustering_results</text>
</g>
<!-- 4&#45;&gt;2 -->
<g id="edge21" class="edge">
<title>4&#45;&gt;2</title>
<path fill="none" stroke="#c0c0c0" stroke-width="2" d="M657.6224,-287.8314C678.7932,-278.2446 704.9483,-266.4008 727.3303,-256.2655"/>
<polygon fill="#c0c0c0" stroke="#c0c0c0" stroke-width="2" points="729.0003,-259.3515 736.6661,-252.038 726.1128,-252.9748 729.0003,-259.3515"/>
</g>
<!-- 4&#45;&gt;10 -->
<g id="edge33" class="edge">
<title>4&#45;&gt;10</title>
<path fill="none" stroke="#c0c0c0" stroke-width="2" d="M705.1229,-291.4098C712.6869,-290.2267 720.2255,-289.0746 727.5,-288 848.57,-270.1161 880.2015,-274.4953 1000.5,-252 1000.6015,-251.981 1000.7031,-251.962 1000.8048,-251.9429"/>
<polygon fill="#c0c0c0" stroke="#c0c0c0" stroke-width="2" points="1001.2891,-255.4151 1010.4159,-250.0344 999.9257,-248.5492 1001.2891,-255.4151"/>
</g>
<!-- 4&#45;&gt;11 -->
<g id="edge37" class="edge">
<title>4&#45;&gt;11</title>
<path fill="none" stroke="#c0c0c0" stroke-width="2" d="M578.387,-287.8314C557.7488,-278.2446 532.2516,-266.4008 510.4327,-256.2655"/>
<polygon fill="#c0c0c0" stroke="#c0c0c0" stroke-width="2" points="511.8756,-253.0766 501.3318,-252.038 508.9266,-259.4251 511.8756,-253.0766"/>
</g>
<!-- 4&#45;&gt;12 -->
<g id="edge42" class="edge">
<title>4&#45;&gt;12</title>
<path fill="none" stroke="#c0c0c0" stroke-width="2" d="M695.3801,-287.9519C737.9576,-278.0662 791.8908,-265.5137 848.8594,-252.1464"/>
<polygon fill="#c0c0c0" stroke="#c0c0c0" stroke-width="2" points="849.8399,-255.5114 858.7754,-249.8186 848.2401,-248.6967 849.8399,-255.5114"/>
</g>
<!-- 18 -->
<g id="node19" class="node">
<title>18</title>
<path fill="none" stroke="#d88d56" stroke-width="2" d="M89,-180C89,-180 12,-180 12,-180 6,-180 0,-174 0,-168 0,-168 0,-156 0,-156 0,-150 6,-144 12,-144 12,-144 89,-144 89,-144 95,-144 101,-150 101,-156 101,-156 101,-168 101,-168 101,-174 95,-180 89,-180"/>
<text text-anchor="middle" x="50.5" y="-159.5" font-family="sans" font-size="10.00" fill="#000000">clustree_analysis</text>
</g>
<!-- 4&#45;&gt;18 -->
<g id="edge51" class="edge">
<title>4&#45;&gt;18</title>
<path fill="none" stroke="#c0c0c0" stroke-width="2" d="M529.9106,-299.3293C424.3237,-290.5088 253.5736,-273.535 193.5,-252 151.2082,-236.8394 108.337,-207.6059 80.7168,-186.5645"/>
<polygon fill="#c0c0c0" stroke="#c0c0c0" stroke-width="2" points="82.7024,-183.6754 72.6522,-180.3221 78.4176,-189.2109 82.7024,-183.6754"/>
</g>
<!-- 4&#45;&gt;19 -->
<g id="edge52" class="edge">
<title>4&#45;&gt;19</title>
<path fill="none" stroke="#c0c0c0" stroke-width="2" d="M617.5,-287.8314C617.5,-280.131 617.5,-270.9743 617.5,-262.4166"/>
<polygon fill="#c0c0c0" stroke="#c0c0c0" stroke-width="2" points="621.0001,-262.4132 617.5,-252.4133 614.0001,-262.4133 621.0001,-262.4132"/>
</g>
<!-- 21 -->
<g id="node22" class="node">
<title>21</title>
<path fill="none" stroke="#d8cb56" stroke-width="2" d="M218,-180C218,-180 131,-180 131,-180 125,-180 119,-174 119,-168 119,-168 119,-156 119,-156 119,-150 125,-144 131,-144 131,-144 218,-144 218,-144 224,-144 230,-150 230,-156 230,-156 230,-168 230,-168 230,-174 224,-180 218,-180"/>
<text text-anchor="middle" x="174.5" y="-159.5" font-family="sans" font-size="10.00" fill="#000000">validation_external</text>
</g>
<!-- 4&#45;&gt;21 -->
<g id="edge56" class="edge">
<title>4&#45;&gt;21</title>
<path fill="none" stroke="#c0c0c0" stroke-width="2" d="M529.7364,-302.4212C430.8055,-296.9087 277.491,-283.4605 229.5,-252 207.2583,-237.4195 192.5511,-210.4158 183.9879,-189.7776"/>
<polygon fill="#c0c0c0" stroke="#c0c0c0" stroke-width="2" points="187.1634,-188.2868 180.2716,-180.2398 180.641,-190.8282 187.1634,-188.2868"/>
</g>
<!-- 4&#45;&gt;23 -->
<g id="edge58" class="edge">
<title>4&#45;&gt;23</title>
<path fill="none" stroke="#c0c0c0" stroke-width="2" d="M529.821,-288.7458C480.0273,-278.6548 416.6167,-265.3133 360.5,-252 359.2301,-251.6987 357.9477,-251.3912 356.656,-251.0785"/>
<polygon fill="#c0c0c0" stroke="#c0c0c0" stroke-width="2" points="357.1749,-247.6015 346.627,-248.5975 355.4939,-254.3966 357.1749,-247.6015"/>
</g>
<!-- 5 -->
<g id="node6" class="node">
<title>5</title>
<path fill="none" stroke="#5692d8" stroke-width="2" d="M752.5,-468C752.5,-468 618.5,-468 618.5,-468 612.5,-468 606.5,-462 606.5,-456 606.5,-456 606.5,-444 606.5,-444 606.5,-438 612.5,-432 618.5,-432 618.5,-432 752.5,-432 752.5,-432 758.5,-432 764.5,-438 764.5,-444 764.5,-444 764.5,-456 764.5,-456 764.5,-462 758.5,-468 752.5,-468"/>
<text text-anchor="middle" x="685.5" y="-447.5" font-family="sans" font-size="10.00" fill="#000000">aggregate_clustering_results</text>
</g>
<!-- 5&#45;&gt;4 -->
<g id="edge25" class="edge">
<title>5&#45;&gt;4</title>
<path fill="none" stroke="#c0c0c0" stroke-width="2" d="M664.5595,-431.925C654.6121,-422.2376 643.4134,-409.5269 636.5,-396 626.6582,-376.7432 621.912,-352.6749 619.6245,-334.2742"/>
<polygon fill="#c0c0c0" stroke="#c0c0c0" stroke-width="2" points="623.0878,-333.7443 618.5418,-324.1743 616.1277,-334.4905 623.0878,-333.7443"/>
</g>
<!-- 8 -->
<g id="node9" class="node">
<title>8</title>
<path fill="none" stroke="#d86656" stroke-width="2" d="M713,-396C713,-396 658,-396 658,-396 652,-396 646,-390 646,-384 646,-384 646,-372 646,-372 646,-366 652,-360 658,-360 658,-360 713,-360 713,-360 719,-360 725,-366 725,-372 725,-372 725,-384 725,-384 725,-390 719,-396 713,-396"/>
<text text-anchor="middle" x="685.5" y="-375.5" font-family="sans" font-size="10.00" fill="#000000">clustification</text>
</g>
<!-- 5&#45;&gt;8 -->
<g id="edge28" class="edge">
<title>5&#45;&gt;8</title>
<path fill="none" stroke="#c0c0c0" stroke-width="2" d="M685.5,-431.8314C685.5,-424.131 685.5,-414.9743 685.5,-406.4166"/>
<polygon fill="#c0c0c0" stroke="#c0c0c0" stroke-width="2" points="689.0001,-406.4132 685.5,-396.4133 682.0001,-406.4133 689.0001,-406.4132"/>
</g>
<!-- 6 -->
<g id="node7" class="node">
<title>6</title>
<path fill="none" stroke="#afd856" stroke-width="2" d="M874,-540C874,-540 813,-540 813,-540 807,-540 801,-534 801,-528 801,-528 801,-516 801,-516 801,-510 807,-504 813,-504 813,-504 874,-504 874,-504 880,-504 886,-510 886,-516 886,-516 886,-528 886,-528 886,-534 880,-540 874,-540"/>
<text text-anchor="middle" x="843.5" y="-519.5" font-family="sans" font-size="10.00" fill="#000000">leiden_cluster</text>
</g>
<!-- 6&#45;&gt;5 -->
<g id="edge26" class="edge">
<title>6&#45;&gt;5</title>
<path fill="none" stroke="#c0c0c0" stroke-width="2" d="M803.6299,-503.8314C782.5923,-494.2446 756.6017,-482.4008 734.3604,-472.2655"/>
<polygon fill="#c0c0c0" stroke="#c0c0c0" stroke-width="2" points="735.6345,-468.9999 725.0834,-468.038 732.7317,-475.3697 735.6345,-468.9999"/>
</g>
<!-- 7 -->
<g id="node8" class="node">
<title>7</title>
<path fill="none" stroke="#567bd8" stroke-width="2" d="M1226,-612C1226,-612 1173,-612 1173,-612 1167,-612 1161,-606 1161,-600 1161,-600 1161,-588 1161,-588 1161,-582 1167,-576 1173,-576 1173,-576 1226,-576 1226,-576 1232,-576 1238,-582 1238,-588 1238,-588 1238,-600 1238,-600 1238,-606 1232,-612 1226,-612"/>
<text text-anchor="middle" x="1199.5" y="-591.5" font-family="sans" font-size="10.00" fill="#000000">umap_graph</text>
</g>
<!-- 7&#45;&gt;0 -->
<g id="edge7" class="edge">
<title>7&#45;&gt;0</title>
<path fill="none" stroke="#c0c0c0" stroke-width="2" d="M1238.2095,-590.8473C1352.8235,-580.4583 1682.5,-542.5329 1682.5,-450 1682.5,-450 1682.5,-450 1682.5,-162 1682.5,-85.527 1419.9009,-38.3604 1320.7751,-23.2801"/>
<polygon fill="#c0c0c0" stroke="#c0c0c0" stroke-width="2" points="1321.019,-19.7778 1310.6112,-21.7596 1319.9833,-26.7007 1321.019,-19.7778"/>
</g>
<!-- 7&#45;&gt;6 -->
<g id="edge27" class="edge">
<title>7&#45;&gt;6</title>
<path fill="none" stroke="#c0c0c0" stroke-width="2" d="M1160.7241,-586.1577C1096.5254,-573.1737 968.0888,-547.1977 895.8865,-532.595"/>
<polygon fill="#c0c0c0" stroke="#c0c0c0" stroke-width="2" points="896.5796,-529.1644 886.0842,-530.6125 895.1919,-536.0255 896.5796,-529.1644"/>
</g>
<!-- 13 -->
<g id="node14" class="node">
<title>13</title>
<path fill="none" stroke="#56a2d8" stroke-width="2" d="M1192,-324C1192,-324 1133,-324 1133,-324 1127,-324 1121,-318 1121,-312 1121,-312 1121,-300 1121,-300 1121,-294 1127,-288 1133,-288 1133,-288 1192,-288 1192,-288 1198,-288 1204,-294 1204,-300 1204,-300 1204,-312 1204,-312 1204,-318 1198,-324 1192,-324"/>
<text text-anchor="middle" x="1162.5" y="-303.5" font-family="sans" font-size="10.00" fill="#000000">umap_embed</text>
</g>
<!-- 7&#45;&gt;13 -->
<g id="edge45" class="edge">
<title>7&#45;&gt;13</title>
<path fill="none" stroke="#c0c0c0" stroke-width="2" d="M1197.1855,-575.9843C1190.9301,-527.2939 1173.6509,-392.7961 1166.1046,-334.0573"/>
<polygon fill="#c0c0c0" stroke="#c0c0c0" stroke-width="2" points="1169.5594,-333.4813 1164.8136,-324.0089 1162.6165,-334.3734 1169.5594,-333.4813"/>
</g>
<!-- 14 -->
<g id="node15" class="node">
<title>14</title>
<path fill="none" stroke="#56d88a" stroke-width="2" d="M1311,-324C1311,-324 1234,-324 1234,-324 1228,-324 1222,-318 1222,-312 1222,-312 1222,-300 1222,-300 1222,-294 1228,-288 1234,-288 1234,-288 1311,-288 1311,-288 1317,-288 1323,-294 1323,-300 1323,-300 1323,-312 1323,-312 1323,-318 1317,-324 1311,-324"/>
<text text-anchor="middle" x="1272.5" y="-303.5" font-family="sans" font-size="10.00" fill="#000000">densmap_embed</text>
</g>
<!-- 7&#45;&gt;14 -->
<g id="edge46" class="edge">
<title>7&#45;&gt;14</title>
<path fill="none" stroke="#c0c0c0" stroke-width="2" d="M1204.0665,-575.9843C1216.4081,-527.2939 1250.4996,-392.7961 1265.3883,-334.0573"/>
<polygon fill="#c0c0c0" stroke="#c0c0c0" stroke-width="2" points="1268.8709,-334.5623 1267.9352,-324.0089 1262.0854,-332.8424 1268.8709,-334.5623"/>
</g>
<!-- 8&#45;&gt;4 -->
<g id="edge24" class="edge">
<title>8&#45;&gt;4</title>
<path fill="none" stroke="#c0c0c0" stroke-width="2" d="M668.3407,-359.8314C660.3489,-351.3694 650.6962,-341.1489 641.9584,-331.8971"/>
<polygon fill="#c0c0c0" stroke="#c0c0c0" stroke-width="2" points="644.3011,-329.2802 634.8903,-324.4133 639.212,-334.0866 644.3011,-329.2802"/>
</g>
<!-- 9&#45;&gt;0 -->
<g id="edge15" class="edge">
<title>9&#45;&gt;0</title>
<path fill="none" stroke="#c0c0c0" stroke-width="2" d="M1223.0136,-215.9555C1234.5393,-178.235 1261.2498,-90.8188 1274.9934,-45.8399"/>
<polygon fill="#c0c0c0" stroke="#c0c0c0" stroke-width="2" points="1278.3807,-46.7314 1277.9557,-36.1451 1271.6862,-44.6858 1278.3807,-46.7314"/>
</g>
<!-- 10&#45;&gt;0 -->
<g id="edge1" class="edge">
<title>10&#45;&gt;0</title>
<path fill="none" stroke="#c0c0c0" stroke-width="2" d="M1091.9597,-215.9555C1129.0725,-177.5997 1215.9038,-87.8602 1258.7259,-43.6038"/>
<polygon fill="#c0c0c0" stroke="#c0c0c0" stroke-width="2" points="1261.5046,-45.7654 1265.943,-36.1451 1256.474,-40.8979 1261.5046,-45.7654"/>
</g>
<!-- 11&#45;&gt;0 -->
<g id="edge12" class="edge">
<title>11&#45;&gt;0</title>
<path fill="none" stroke="#c0c0c0" stroke-width="2" d="M507.1125,-215.9604C590.6379,-182.8393 776.8801,-112.0636 939.5,-72 1049.367,-44.9328 1182.4683,-28.5789 1246.0977,-21.7416"/>
<polygon fill="#c0c0c0" stroke="#c0c0c0" stroke-width="2" points="1246.8486,-25.1818 1256.4254,-20.6503 1246.1129,-18.2206 1246.8486,-25.1818"/>
</g>
<!-- 12&#45;&gt;0 -->
<g id="edge11" class="edge">
<title>12&#45;&gt;0</title>
<path fill="none" stroke="#c0c0c0" stroke-width="2" d="M955.2244,-215.9887C1004.6502,-186.0493 1106.8725,-124.1702 1193.5,-72 1211.2803,-61.2921 1231.056,-49.4223 1247.5313,-39.5445"/>
<polygon fill="#c0c0c0" stroke="#c0c0c0" stroke-width="2" points="1249.5333,-42.4251 1256.3111,-34.2818 1245.9344,-36.4211 1249.5333,-42.4251"/>
</g>
<!-- 13&#45;&gt;0 -->
<g id="edge2" class="edge">
<title>13&#45;&gt;0</title>
<path fill="none" stroke="#c0c0c0" stroke-width="2" d="M1204.1764,-290.4579C1238.2472,-277.3335 1281.5777,-259.5123 1286.5,-252 1328.1091,-188.4965 1307.3746,-93.0203 1293.1415,-46.0847"/>
<polygon fill="#c0c0c0" stroke="#c0c0c0" stroke-width="2" points="1296.4017,-44.7855 1290.0534,-36.3032 1289.7264,-46.893 1296.4017,-44.7855"/>
</g>
<!-- 13&#45;&gt;2 -->
<g id="edge23" class="edge">
<title>13&#45;&gt;2</title>
<path fill="none" stroke="#c0c0c0" stroke-width="2" d="M1120.8052,-299.7703C1062.5266,-290.8515 953.2184,-273.3563 850.4575,-252.1278"/>
<polygon fill="#c0c0c0" stroke="#c0c0c0" stroke-width="2" points="851.0388,-248.6738 840.5353,-250.0619 849.6119,-255.5269 851.0388,-248.6738"/>
</g>
<!-- 13&#45;&gt;9 -->
<g id="edge31" class="edge">
<title>13&#45;&gt;9</title>
<path fill="none" stroke="#c0c0c0" stroke-width="2" d="M1176.3788,-287.8314C1182.7136,-279.5386 1190.3384,-269.557 1197.2926,-260.4533"/>
<polygon fill="#c0c0c0" stroke="#c0c0c0" stroke-width="2" points="1200.1452,-262.4847 1203.4343,-252.4133 1194.5825,-258.2353 1200.1452,-262.4847"/>
</g>
<!-- 13&#45;&gt;10 -->
<g id="edge35" class="edge">
<title>13&#45;&gt;10</title>
<path fill="none" stroke="#c0c0c0" stroke-width="2" d="M1140.2939,-287.8314C1129.455,-278.9632 1116.2556,-268.1637 1104.5322,-258.5718"/>
<polygon fill="#c0c0c0" stroke="#c0c0c0" stroke-width="2" points="1106.655,-255.7864 1096.699,-252.1628 1102.2223,-261.2041 1106.655,-255.7864"/>
</g>
<!-- 13&#45;&gt;12 -->
<g id="edge44" class="edge">
<title>13&#45;&gt;12</title>
<path fill="none" stroke="#c0c0c0" stroke-width="2" d="M1120.9465,-293.3762C1086.0423,-282.7724 1035.4464,-267.4015 994.4791,-254.9557"/>
<polygon fill="#c0c0c0" stroke="#c0c0c0" stroke-width="2" points="995.4106,-251.5808 984.8249,-252.0228 993.3757,-258.2785 995.4106,-251.5808"/>
</g>
<!-- 15 -->
<g id="node16" class="node">
<title>15</title>
<path fill="none" stroke="#d8b456" stroke-width="2" d="M1604.5,-252C1604.5,-252 1494.5,-252 1494.5,-252 1488.5,-252 1482.5,-246 1482.5,-240 1482.5,-240 1482.5,-228 1482.5,-228 1482.5,-222 1488.5,-216 1494.5,-216 1494.5,-216 1604.5,-216 1604.5,-216 1610.5,-216 1616.5,-222 1616.5,-228 1616.5,-228 1616.5,-240 1616.5,-240 1616.5,-246 1610.5,-252 1604.5,-252"/>
<text text-anchor="middle" x="1549.5" y="-231.5" font-family="sans" font-size="10.00" fill="#000000">plot_umap_connectivity</text>
</g>
<!-- 13&#45;&gt;15 -->
<g id="edge47" class="edge">
<title>13&#45;&gt;15</title>
<path fill="none" stroke="#c0c0c0" stroke-width="2" d="M1204.0421,-290.3118C1206.8851,-289.4654 1209.7228,-288.6835 1212.5,-288 1323.0963,-260.7815 1356.5745,-272.8108 1472.4644,-252.0779"/>
<polygon fill="#c0c0c0" stroke="#c0c0c0" stroke-width="2" points="1473.2321,-255.4956 1482.4372,-250.25 1471.9701,-248.6102 1473.2321,-255.4956"/>
</g>
<!-- 16 -->
<g id="node17" class="node">
<title>16</title>
<path fill="none" stroke="#56d8c1" stroke-width="2" d="M1452,-252C1452,-252 1347,-252 1347,-252 1341,-252 1335,-246 1335,-240 1335,-240 1335,-228 1335,-228 1335,-222 1341,-216 1347,-216 1347,-216 1452,-216 1452,-216 1458,-216 1464,-222 1464,-228 1464,-228 1464,-240 1464,-240 1464,-246 1458,-252 1452,-252"/>
<text text-anchor="middle" x="1399.5" y="-231.5" font-family="sans" font-size="10.00" fill="#000000">plot_umap_diagnostics</text>
</g>
<!-- 13&#45;&gt;16 -->
<g id="edge49" class="edge">
<title>13&#45;&gt;16</title>
<path fill="none" stroke="#c0c0c0" stroke-width="2" d="M1204.1728,-290.7709C1206.9842,-289.8136 1209.7792,-288.8816 1212.5,-288 1249.2192,-276.1025 1290.3999,-264.0715 1324.7505,-254.3947"/>
<polygon fill="#c0c0c0" stroke="#c0c0c0" stroke-width="2" points="1326.0294,-257.6711 1334.7124,-251.6003 1324.1387,-250.9313 1326.0294,-257.6711"/>
</g>
<!-- 14&#45;&gt;0 -->
<g id="edge13" class="edge">
<title>14&#45;&gt;0</title>
<path fill="none" stroke="#c0c0c0" stroke-width="2" d="M1323.2949,-301.8591C1416.2594,-293.7632 1606.063,-274.6365 1625.5,-252 1692.0019,-174.5514 1668.6781,-176.7846 1494.5,-72 1439.6066,-38.9764 1364.9583,-26.012 1320.7437,-21.0201"/>
<polygon fill="#c0c0c0" stroke="#c0c0c0" stroke-width="2" points="1321.0335,-17.5314 1310.7225,-19.967 1320.3019,-24.493 1321.0335,-17.5314"/>
</g>
<!-- 14&#45;&gt;2 -->
<g id="edge20" class="edge">
<title>14&#45;&gt;2</title>
<path fill="none" stroke="#c0c0c0" stroke-width="2" d="M1221.9335,-290.0832C1218.7569,-289.3156 1215.594,-288.6116 1212.5,-288 1056.7144,-257.206 1011.1395,-278.5598 851.0872,-252.1281"/>
<polygon fill="#c0c0c0" stroke="#c0c0c0" stroke-width="2" points="851.3247,-248.6187 840.8814,-250.4041 850.1587,-255.5209 851.3247,-248.6187"/>
</g>
<!-- 14&#45;&gt;9 -->
<g id="edge32" class="edge">
<title>14&#45;&gt;9</title>
<path fill="none" stroke="#c0c0c0" stroke-width="2" d="M1258.6212,-287.8314C1252.2864,-279.5386 1244.6616,-269.557 1237.7074,-260.4533"/>
<polygon fill="#c0c0c0" stroke="#c0c0c0" stroke-width="2" points="1240.4175,-258.2353 1231.5657,-252.4133 1234.8548,-262.4847 1240.4175,-258.2353"/>
</g>
<!-- 14&#45;&gt;10 -->
<g id="edge36" class="edge">
<title>14&#45;&gt;10</title>
<path fill="none" stroke="#c0c0c0" stroke-width="2" d="M1222.7918,-287.9243C1195.7241,-278.0815 1162.0561,-265.8386 1133.6451,-255.5073"/>
<polygon fill="#c0c0c0" stroke="#c0c0c0" stroke-width="2" points="1134.8227,-252.2114 1124.2286,-252.0831 1132.4305,-258.7899 1134.8227,-252.2114"/>
</g>
<!-- 14&#45;&gt;12 -->
<g id="edge41" class="edge">
<title>14&#45;&gt;12</title>
<path fill="none" stroke="#c0c0c0" stroke-width="2" d="M1221.8785,-290.3382C1218.7155,-289.5073 1215.5706,-288.7197 1212.5,-288 1122.9525,-267.012 1096.4668,-270.6903 1002.1391,-252.0464"/>
<polygon fill="#c0c0c0" stroke="#c0c0c0" stroke-width="2" points="1002.6686,-248.5829 992.1751,-250.0446 1001.2898,-255.4458 1002.6686,-248.5829"/>
</g>
<!-- 14&#45;&gt;15 -->
<g id="edge48" class="edge">
<title>14&#45;&gt;15</title>
<path fill="none" stroke="#c0c0c0" stroke-width="2" d="M1323.3061,-292.7941C1365.0091,-281.9543 1424.732,-266.4307 1472.3385,-254.0564"/>
<polygon fill="#c0c0c0" stroke="#c0c0c0" stroke-width="2" points="1473.5045,-257.3697 1482.3024,-251.4665 1471.7435,-250.5948 1473.5045,-257.3697"/>
</g>
<!-- 14&#45;&gt;16 -->
<g id="edge50" class="edge">
<title>14&#45;&gt;16</title>
<path fill="none" stroke="#c0c0c0" stroke-width="2" d="M1304.5475,-287.8314C1320.942,-278.5368 1341.0786,-267.1208 1358.5829,-257.1971"/>
<polygon fill="#c0c0c0" stroke="#c0c0c0" stroke-width="2" points="1360.4897,-260.1395 1367.4628,-252.1628 1357.0374,-254.05 1360.4897,-260.1395"/>
</g>
<!-- 15&#45;&gt;0 -->
<g id="edge10" class="edge">
<title>15&#45;&gt;0</title>
<path fill="none" stroke="#c0c0c0" stroke-width="2" d="M1545.168,-215.9512C1536.1981,-182.4948 1512.3961,-110.7395 1465.5,-72 1423.7471,-37.5091 1360.6119,-25.0477 1320.745,-20.5458"/>
<polygon fill="#c0c0c0" stroke="#c0c0c0" stroke-width="2" points="1320.9492,-17.0486 1310.6465,-19.5196 1320.2414,-24.0128 1320.9492,-17.0486"/>
</g>
<!-- 16&#45;&gt;0 -->
<g id="edge14" class="edge">
<title>16&#45;&gt;0</title>
<path fill="none" stroke="#c0c0c0" stroke-width="2" d="M1391.5784,-215.5688C1378.2176,-185.0254 1349.7828,-122.2981 1320.5,-72 1315.0966,-62.7188 1308.6406,-52.9314 1302.6455,-44.2763"/>
<polygon fill="#c0c0c0" stroke="#c0c0c0" stroke-width="2" points="1305.4789,-42.2209 1296.86,-36.0593 1299.7552,-46.2508 1305.4789,-42.2209"/>
</g>
<!-- 17 -->
<g id="node18" class="node">
<title>17</title>
<path fill="none" stroke="#88d856" stroke-width="2" d="M1444.5,-108C1444.5,-108 1384.5,-108 1384.5,-108 1378.5,-108 1372.5,-102 1372.5,-96 1372.5,-96 1372.5,-84 1372.5,-84 1372.5,-78 1378.5,-72 1384.5,-72 1384.5,-72 1444.5,-72 1444.5,-72 1450.5,-72 1456.5,-78 1456.5,-84 1456.5,-84 1456.5,-96 1456.5,-96 1456.5,-102 1450.5,-108 1444.5,-108"/>
<text text-anchor="middle" x="1414.5" y="-87.5" font-family="sans" font-size="10.00" fill="#000000">plot_heatmap</text>
</g>
<!-- 17&#45;&gt;0 -->
<g id="edge3" class="edge">
<title>17&#45;&gt;0</title>
<path fill="none" stroke="#c0c0c0" stroke-width="2" d="M1381.4432,-71.8314C1362.5983,-61.4739 1338.9601,-48.4819 1319.6275,-37.8563"/>
<polygon fill="#c0c0c0" stroke="#c0c0c0" stroke-width="2" points="1321.2519,-34.7553 1310.8024,-33.0059 1317.8802,-40.8898 1321.2519,-34.7553"/>
</g>
<!-- 18&#45;&gt;0 -->
<g id="edge4" class="edge">
<title>18&#45;&gt;0</title>
<path fill="none" stroke="#c0c0c0" stroke-width="2" d="M84.2183,-143.9315C126.249,-122.414 200.9265,-87.4468 269.5,-72 460.9454,-28.8752 1086.3112,-19.9175 1246.0719,-18.3151"/>
<polygon fill="#c0c0c0" stroke="#c0c0c0" stroke-width="2" points="1246.3703,-21.8125 1256.336,-18.216 1246.3027,-14.8128 1246.3703,-21.8125"/>
</g>
<!-- 19&#45;&gt;0 -->
<g id="edge5" class="edge">
<title>19&#45;&gt;0</title>
<path fill="none" stroke="#c0c0c0" stroke-width="2" d="M659.2462,-215.9082C734.9104,-183.628 900.2479,-115.426 1044.5,-72 1114.7473,-50.8526 1198.8115,-33.6913 1246.1973,-24.7427"/>
<polygon fill="#c0c0c0" stroke="#c0c0c0" stroke-width="2" points="1247.1107,-28.1327 1256.2975,-22.8551 1245.8247,-21.2518 1247.1107,-28.1327"/>
</g>
<!-- 20 -->
<g id="node21" class="node">
<title>20</title>
<path fill="none" stroke="#566bd8" stroke-width="2" d="M342,-108C342,-108 291,-108 291,-108 285,-108 279,-102 279,-96 279,-96 279,-84 279,-84 279,-78 285,-72 291,-72 291,-72 342,-72 342,-72 348,-72 354,-78 354,-84 354,-84 354,-96 354,-96 354,-102 348,-108 342,-108"/>
<text text-anchor="middle" x="316.5" y="-87.5" font-family="sans" font-size="10.00" fill="#000000">plot_indices</text>
</g>
<!-- 20&#45;&gt;0 -->
<g id="edge18" class="edge">
<title>20&#45;&gt;0</title>
<path fill="none" stroke="#c0c0c0" stroke-width="2" d="M354.2457,-80.4299C368.081,-77.263 383.9202,-74.0325 398.5,-72 566.1989,-48.6218 1099.2354,-25.5455 1245.857,-19.5167"/>
<polygon fill="#c0c0c0" stroke="#c0c0c0" stroke-width="2" points="1246.2784,-23.0025 1256.1269,-19.0964 1245.9921,-16.0084 1246.2784,-23.0025"/>
</g>
<!-- 21&#45;&gt;20 -->
<g id="edge55" class="edge">
<title>21&#45;&gt;20</title>
<path fill="none" stroke="#c0c0c0" stroke-width="2" d="M210.3326,-143.8314C228.9157,-134.4089 251.7989,-122.8062 271.5565,-112.7883"/>
<polygon fill="#c0c0c0" stroke="#c0c0c0" stroke-width="2" points="273.3427,-115.8069 280.6789,-108.1628 270.177,-109.5635 273.3427,-115.8069"/>
</g>
<!-- 22 -->
<g id="node23" class="node">
<title>22</title>
<path fill="none" stroke="#d8a456" stroke-width="2" d="M372.5,-180C372.5,-180 260.5,-180 260.5,-180 254.5,-180 248.5,-174 248.5,-168 248.5,-168 248.5,-156 248.5,-156 248.5,-150 254.5,-144 260.5,-144 260.5,-144 372.5,-144 372.5,-144 378.5,-144 384.5,-150 384.5,-156 384.5,-156 384.5,-168 384.5,-168 384.5,-174 378.5,-180 372.5,-180"/>
<text text-anchor="middle" x="316.5" y="-159.5" font-family="sans" font-size="10.00" fill="#000000">aggregate_rank_internal</text>
</g>
<!-- 22&#45;&gt;20 -->
<g id="edge54" class="edge">
<title>22&#45;&gt;20</title>
<path fill="none" stroke="#c0c0c0" stroke-width="2" d="M316.5,-143.8314C316.5,-136.131 316.5,-126.9743 316.5,-118.4166"/>
<polygon fill="#c0c0c0" stroke="#c0c0c0" stroke-width="2" points="320.0001,-118.4132 316.5,-108.4133 313.0001,-118.4133 320.0001,-118.4132"/>
</g>
<!-- 23&#45;&gt;22 -->
<g id="edge57" class="edge">
<title>23&#45;&gt;22</title>
<path fill="none" stroke="#c0c0c0" stroke-width="2" d="M298.5562,-215.8314C301.1512,-208.0463 304.2424,-198.7729 307.1218,-190.1347"/>
<polygon fill="#c0c0c0" stroke="#c0c0c0" stroke-width="2" points="310.5203,-191.0069 310.3622,-180.4133 303.8795,-188.7933 310.5203,-191.0069"/>
</g>
<!-- 24 -->
<g id="node25" class="node">
<title>24</title>
<path fill="none" stroke="#56d863" stroke-width="2" d="M1770,-108C1770,-108 1723,-108 1723,-108 1717,-108 1711,-102 1711,-96 1711,-96 1711,-84 1711,-84 1711,-78 1717,-72 1723,-72 1723,-72 1770,-72 1770,-72 1776,-72 1782,-78 1782,-84 1782,-84 1782,-96 1782,-96 1782,-102 1776,-108 1770,-108"/>
<text text-anchor="middle" x="1746.5" y="-87.5" font-family="sans" font-size="10.00" fill="#000000">env_export</text>
</g>
<!-- 24&#45;&gt;0 -->
<g id="edge9" class="edge">
<title>24&#45;&gt;0</title>
<path fill="none" stroke="#c0c0c0" stroke-width="2" d="M1710.7331,-76.0791C1705.9938,-74.5437 1701.1625,-73.13 1696.5,-72 1560.525,-39.0438 1394.1709,-25.0576 1321.0318,-20.192"/>
<polygon fill="#c0c0c0" stroke="#c0c0c0" stroke-width="2" points="1321.1368,-16.6916 1310.9319,-19.5392 1320.6852,-23.677 1321.1368,-16.6916"/>
</g>
<!-- 25 -->
<g id="node26" class="node">
<title>25</title>
<path fill="none" stroke="#70d856" stroke-width="2" d="M1871,-108C1871,-108 1812,-108 1812,-108 1806,-108 1800,-102 1800,-96 1800,-96 1800,-84 1800,-84 1800,-78 1806,-72 1812,-72 1812,-72 1871,-72 1871,-72 1877,-72 1883,-78 1883,-84 1883,-84 1883,-96 1883,-96 1883,-102 1877,-108 1871,-108"/>
<text text-anchor="middle" x="1841.5" y="-87.5" font-family="sans" font-size="10.00" fill="#000000">config_export</text>
</g>
<!-- 25&#45;&gt;0 -->
<g id="edge6" class="edge">
<title>25&#45;&gt;0</title>
<path fill="none" stroke="#c0c0c0" stroke-width="2" d="M1799.9818,-74.2114C1797.1331,-73.3892 1794.2875,-72.6401 1791.5,-72 1618.4548,-32.2615 1405.4051,-21.6518 1320.7338,-18.9144"/>
<polygon fill="#c0c0c0" stroke="#c0c0c0" stroke-width="2" points="1320.6895,-15.4116 1310.5873,-18.6047 1320.4759,-22.4083 1320.6895,-15.4116"/>
</g>
<!-- 26 -->
<g id="node27" class="node">
<title>26</title>
<path fill="none" stroke="#61d856" stroke-width="2" d="M1970,-108C1970,-108 1913,-108 1913,-108 1907,-108 1901,-102 1901,-96 1901,-96 1901,-84 1901,-84 1901,-78 1907,-72 1913,-72 1913,-72 1970,-72 1970,-72 1976,-72 1982,-78 1982,-84 1982,-84 1982,-96 1982,-96 1982,-102 1976,-108 1970,-108"/>
<text text-anchor="middle" x="1941.5" y="-87.5" font-family="sans" font-size="10.00" fill="#000000">annot_export</text>
</g>
<!-- 26&#45;&gt;0 -->
<g id="edge8" class="edge">
<title>26&#45;&gt;0</title>
<path fill="none" stroke="#c0c0c0" stroke-width="2" d="M1900.835,-74.1503C1898.0377,-73.3428 1895.2416,-72.6138 1892.5,-72 1782.3879,-47.3489 1435.1122,-26.3971 1320.561,-20.0033"/>
<polygon fill="#c0c0c0" stroke="#c0c0c0" stroke-width="2" points="1320.7057,-16.506 1310.5274,-19.4474 1320.3184,-23.4953 1320.7057,-16.506"/>
</g>
</g>
</svg>
